<svg xmlns="http://www.w3.org/2000/svg" version="1.1" viewBox="0 0 3000 3000" width="3000" height="3000">
<defs/><!--ITEM: Illustration component 1--><g transform="translate(660.0 1050.0) rotate(0.0 82.5 161.25) translate(0.0 10.714285714285715) scale(3.037611148953405 2.9685745319317363)"><svg width="54.319" height="105.02876411960135" viewBox="0.0 3.6092358803986717 54.319 105.02876411960135"><g>
	<g>
		<path style="fill:#00e6b3;" d="M54.319,54.319C54.319,24.32,30,0,0,0v108.638C30,108.638,54.319,84.319,54.319,54.319z"/>
	</g>
</g>
</svg></g><!--ITEM: Illustration component 2--><g transform="translate(502.5 1470.0) rotate(90.0 356.25 211.875)  scale(3.667009778692743 3.6467297762478483)"><svg width="194.3" height="116.2" viewBox="0.0 0.0 194.3 116.2"><path d="M8,0C3.6,0,0,3.6,0,8c0,21.3,0,79.6,0,100.6c0,2,0.8,4,2.2,5.4s3.4,2.2,5.4,2.2c31.2,0,148,0,179.1,0  c2,0,4-0.8,5.4-2.2s2.2-3.4,2.2-5.4c0-21.1,0-79.8,0-100.9c0-2-0.8-4-2.2-5.4s-3.4-2.2-5.4-2.2C155.7,0,39.5,0,8,0L8,0z" style="fill:#00e6b3;"/>
</svg></g><!--ITEM: Illustration component 3--><g transform="translate(828.75 2748.75) rotate(0.0 958.125 -757.5) translate(0.0 -0.0) scale(21.040351358770245 -20.78902229845626)"><svg width="91.075" height="57.90315594059406" viewBox="0.0 0.0 91.075 57.90315594059406"><path d="M10.475,53.2V5.1c0-1.4,0.5-2.7,1.5-3.6c1-1,2.3-1.5,3.6-1.5c14.5,0,55.9,0,70.4,0c1.4,0,2.7,0.5,3.6,1.5  c1,1,1.5,2.3,1.5,3.6c0,11.9,0,41.2,0,53.1c0,1.4-0.5,2.7-1.5,3.6c-1,1-2.3,1.5-3.6,1.5h-67.9l-14.2,8.9c-0.9,0.9-2.3,0.9-3.2,0  s-0.9-2.3,0-3.2L10.475,53.2L10.475,53.2z" style="fill:#00E6B3;"/>
</svg></g><!--ITEM: Illustration background 4--><g transform="translate(78.75 1053.75) rotate(0.0 1451.25 751.875) translate(0.0 7.5) scale(4.493034055727554 4.48003312915604)"><svg width="592.5839793281655" height="333.9819052369078" viewBox="0.0 1.6740947630922696 592.5839793281655 333.9819052369078"><g>
	<path d="M457.3,21.939c0,0-23.2,0-41.4,0c-2.5,0-4.9,1-6.7,2.8c-1.8,1.8-2.8,4.2-2.8,6.7l0,0c0,2.5,1,4.9,2.8,6.7   c1.8,1.8,4.2,2.8,6.7,2.8c0,0,23.2,0,41.4,0c2.5,0,4.9-1,6.7-2.8s2.8-4.2,2.8-6.7l0,0c0-2.5-1-4.9-2.8-6.7   S459.8,21.939,457.3,21.939z" style="fill:#00e6b3;"/>
	<path d="M340.8,268.439c0,0,16.5,0,29.3,0c1.8,0,3.5,0.7,4.7,2c1.3,1.3,2,3,2,4.7l0,0c0,1.8-0.7,3.5-2,4.7   c-1.3,1.3-3,2-4.7,2c0,0-16.5,0-29.3,0c-1.8,0-3.5-0.7-4.7-2c-1.3-1.3-2-3-2-4.7l0,0c0-1.8,0.7-3.5,2-4.7   C337.3,269.139,339,268.439,340.8,268.439z" style="fill:#00e6b3;"/>
	<path d="M49.4,92.239c0,0,16.5,0,29.3,0c1.8,0,3.5,0.7,4.7,2c1.3,1.3,2,3,2,4.7l0,0c0,1.8-0.7,3.5-2,4.7   c-1.3,1.3-3,2-4.7,2c0,0-16.5,0-29.3,0c-1.8,0-3.5-0.7-4.7-2c-1.3-1.3-2-3-2-4.7l0,0c0-1.8,0.7-3.5,2-4.7   C45.9,92.939,47.6,92.239,49.4,92.239z" style="fill:#00e6b3;"/>
	<path d="M533.4,281.439c0,0,14.5,0,38.8,0c3.3,0,6.6,1.3,8.9,3.7c2.4,2.4,3.7,5.6,3.7,8.9l0,0c0,3.3-1.3,6.6-3.7,8.9   c-2.4,2.4-5.6,3.7-8.9,3.7c0,0-14.5,0-38.8,0c-3.3,0-6.6-1.3-8.9-3.7c-2.4-2.4-3.7-5.6-3.7-8.9l0,0c0-3.3,1.3-6.6,3.7-8.9   C526.8,282.739,530,281.439,533.4,281.439z" style="fill:#00e6b3;"/>
	<circle cx="385" cy="8.739" r="7.2" style="fill:#00e6b3;"/>
	<circle cx="25.6" cy="225.939" r="7.2" style="fill:#00e6b3;"/>
	<circle cx="614" cy="315.839" r="7.2" style="fill:#00e6b3;"/>
	<circle cx="636.7" cy="230.639" r="9.3" style="fill:#00e6b3;"/>
	<circle cx="95.4" cy="74.739" r="9.3" style="fill:#00e6b3;"/>
	<ellipse cx="421.415" cy="305.636" rx="14" ry="14" style="fill:#00e6b3;"/>
	<path d="M622.2,141.339c-7-6.9-16.4-10.8-26.2-10.8h-39.9c-1.5,0-2.9-0.5-4-1.6c-1-1.1-1.6-2.5-1.6-4s0.5-2.9,1.6-4   c1.1-1,2.5-1.6,4-1.6h27.846c2.365,0,4.699-0.82,6.407-2.456c1.872-1.792,2.827-4.17,2.741-6.762   c-0.07-2.126-0.917-4.195-2.369-5.749c-1.729-1.85-4.018-2.833-6.525-2.833h-38.7c-2.6,0-5.1-1-7-2.9c-1.9-1.9-2.9-4.4-2.9-7   c0-2.6,1-5.1,2.9-7c1.9-1.9,4.4-2.9,7-2.9h12.2c3.8,0,7.5-1.5,10.2-4.2c2.7-2.7,4.2-6.4,4.2-10.2c0-3.8-1.5-7.5-4.2-10.2   s-6.4-4.2-10.2-4.2H272.9c0,0,0.008-0.003,0.009-0.003c-0.022,0-0.043,0.003-0.064,0.003c-9.027,0-16.344-7.318-16.344-16.344   c0-8.968,7.222-16.249,16.167-16.344c5.384-0.057,10.008-4.209,10.288-9.585C283.259,4.828,278.615,0,272.844,0h-133.17   c-5.981,0-10.83,4.849-10.83,10.83s4.849,10.83,10.83,10.83h6.253c1.2,0,2.5,0.5,3.4,1.4c0.9,0.9,1.4,2.1,1.4,3.4   c0,1.2-0.5,2.5-1.4,3.4c-0.9,0.9-2.1,1.4-3.4,1.4h-14.017c-10.803,0-20.003,8.401-20.387,19.197   c-0.402,11.334,8.667,20.648,19.91,20.648c0.003,0,0.005,0,0.008,0c-0.005,0.021-0.008,0.034-0.008,0.034H211.3   c1.2,0,2.5,0.5,3.4,1.4c0.9,0.9,1.4,2.1,1.4,3.4c0,1.2-0.5,2.5-1.4,3.4c-0.9,0.9-2.1,1.4-3.4,1.4h-43.6c-3.7,0-7.2,1.5-9.8,4.1   c-2.6,2.6-4.1,6.1-4.1,9.8s1.5,7.2,4.1,9.8s6.1,4.1,9.8,4.1h4.6v0.1h25.5c1.5,0,2.9,0.5,4,1.6c1,1.1,1.6,2.5,1.6,4s-0.5,2.9-1.6,4   c-1.1,1-2.5,1.6-4,1.6h-90.7c-3,0-5.9,1.2-8.1,3.4c-2.2,2.1-3.4,5.1-3.4,8.1s1.2,5.9,3.4,8.1c2.1,2.2,5.1,3.4,8.1,3.4H125   c2.6,0,5.1,1,7,2.9c1.9,1.9,2.9,4.4,2.9,7c0,2.6-1,5.1-2.9,7c-1.9,1.9-4.4,2.9-7,2.9H22.1c-5.8,0-11.5,2.4-15.6,6.5   c-4.2,4.1-6.5,9.7-6.5,15.6c0,5.8,2.4,11.5,6.5,15.6c4.1,4.2,9.7,6.5,15.6,6.5h73.5c4,0,7.9,1.6,10.7,4.4c2.8,2.9,4.4,6.7,4.4,10.7   s-1.6,7.9-4.4,10.7c-2.9,2.8-6.7,4.4-10.7,4.4H78.5c-2.7,0.2-5.3,1.4-7.2,3.3c-2.2,2.1-3.4,5.1-3.4,8.1s1.2,5.9,3.4,8.1   c2.1,2.1,4.9,3.3,7.8,3.4l16.1-0.106c11.767,0,21.307,9.539,21.307,21.306c0,11.767-9.54,21.306-21.307,21.306   c0,0-63.06,0-64.855,0c-9.171,0-16.605,7.435-16.605,16.605c0,9.171,7.434,16.605,16.605,16.605c5.273,0,279.403,0,279.403,0   s0,0,0.001,0c7.843,0,14.2-6.358,14.2-14.2c0-7.843-6.357-14.2-14.2-14.2h-24.833c-14.479,0-26.216-11.737-26.216-26.216   s11.737-26.216,26.216-26.216c0.214,0,0.425,0.011,0.637,0.016c11.328,0,172.234,0,220.947,0c0.3,0,0.6,0,0.9,0h37.2h20.1   c4,0,7.8-1.6,10.6-4.4c2.8-2.8,4.4-6.6,4.4-10.6s-1.6-7.8-4.4-10.6c-2.3-2.2-5.1-3.7-8.2-4.2h-31.4c-2.7,0-5.3-1.1-7.2-3   c-1.9-1.9-3-4.5-3-7.2c0-2.7,1.1-5.3,3-7.2c1.9-1.9,4.5-3,7.2-3l60.3-0.1c9.8,0,19.3-3.9,26.2-10.8c6.9-7,10.8-16.4,10.8-26.2   C633,157.739,629.1,148.239,622.2,141.339z" style="fill:#00e6b3;"/>
</g>
</svg></g><!--ITEM: Illustration component 5--><g transform="translate(52.5 206.25) rotate(0.0 1005.0 1271.25)  scale(3.640974549406757 3.6397395134702575)"><svg width="552.05" height="698.539" viewBox="0.0 0.0 552.05 698.539"><g>
	<path fill="#142664" d="M541.253,116.48l-49.433-0.911v0l-60.23-1.11v0l-60.229-1.11v0l-64.826-1.195l-58.859-1.095l-0.659-41.369   h0l-0.938-58.864C245.983,4.856,241.05,0,235.079,0H174.79c-5.969,0-10.903,4.856-10.999,10.825l-0.938,58.865l0,0l-0.634,39.794   l-31.77-0.585v0l-70.22-1.295v0l-49.026-0.903c-2.966-0.062-5.785,1.063-7.91,3.148C1.17,111.935,0,114.723,0,117.699v52.096   c0,2.977,1.17,5.764,3.294,7.85c2.074,2.037,4.802,3.15,7.7,3.15c0.069,0,0.14,0,0.209-0.002l59.027-1.087v0l50.22-0.925v0   l40.678-0.75l-0.494,31.029l0,0l-1.21,75.976l-1.019,63.404h0l-0.06,3.768l-0.1,6.232h0.001l-0.951,59.68l0,0l-1.11,69.69l0,0   l-1.109,69.69l0,0l-1.092,68.504c-0.034,2.13,0.542,4.168,1.633,5.934h-23.904c-12.364,0-22.386,10.023-22.386,22.386v39.251   c0,2.741,2.222,4.963,4.963,4.963h181.294c2.741,0,4.963-2.222,4.963-4.963v-39.251c0-12.364-10.023-22.386-22.386-22.386h-23.905   c1.091-1.766,1.667-3.804,1.633-5.933l-1.091-68.505l0,0l-1.11-69.69l0,0l-1.109-69.69l0,0l-0.951-59.68h0.001l-0.092-5.706   l-0.068-4.294h0l-1.028-63.927l-1.202-75.452l0,0l-0.52-32.644l57.818-1.075l64.826-1.195v0l60.229-1.11v0l50.23-0.925v0   l34.166-0.63c-0.894,0.519-1.502,1.477-1.502,2.585v5.938c0,1.51,1.116,2.76,2.568,2.969c-1.452,0.209-2.568,1.459-2.568,2.969   v5.938c0,1.51,1.116,2.76,2.568,2.969c-1.452,0.209-2.568,1.459-2.568,2.969v5.938c0,1.51,1.116,2.76,2.568,2.969   c-1.452,0.209-2.568,1.459-2.568,2.969v5.939c0,1.51,1.116,2.76,2.568,2.969c-1.452,0.209-2.568,1.459-2.568,2.969v5.938   c0,1.51,1.116,2.76,2.568,2.969c-1.452,0.209-2.568,1.459-2.568,2.969v5.938c0,1.51,1.116,2.76,2.568,2.969   c-1.452,0.209-2.568,1.459-2.568,2.969v5.938c0,1.51,1.116,2.76,2.568,2.969c-1.452,0.209-2.568,1.459-2.568,2.969v5.938   c0,1.51,1.116,2.76,2.568,2.969c-1.452,0.209-2.568,1.459-2.568,2.969v5.938c0,1.51,1.116,2.76,2.568,2.969   c-1.452,0.209-2.568,1.459-2.568,2.969v5.938c0,1.511,1.117,2.761,2.57,2.97c-1.453,0.208-2.57,1.458-2.57,2.969v5.938   c0,1.51,1.116,2.76,2.568,2.969c-1.452,0.209-2.568,1.459-2.568,2.969v5.938c0,1.51,1.116,2.76,2.568,2.969   c-1.452,0.209-2.568,1.459-2.568,2.969v5.938c0,1.552,1.183,2.814,2.695,2.969c-1.512,0.155-2.695,1.417-2.695,2.969v3   c0,1.657,1.343,3,3,3s3-1.343,3-3v-3c0-1.552-1.183-2.814-2.695-2.969c1.512-0.155,2.695-1.417,2.695-2.969v-5.938   c0-1.51-1.116-2.76-2.568-2.969c1.452-0.209,2.568-1.459,2.568-2.969v-5.938c0-1.51-1.116-2.76-2.568-2.969   c1.452-0.209,2.568-1.459,2.568-2.969v-5.938c0-1.511-1.117-2.761-2.57-2.969c1.453-0.208,2.57-1.458,2.57-2.97v-5.938   c0-1.51-1.116-2.76-2.568-2.969c1.452-0.209,2.568-1.459,2.568-2.969v-5.938c0-1.51-1.116-2.76-2.568-2.969   c1.452-0.209,2.568-1.459,2.568-2.969v-5.938c0-1.51-1.116-2.76-2.568-2.969c1.452-0.209,2.568-1.459,2.568-2.969v-5.938   c0-1.51-1.116-2.76-2.568-2.969c1.452-0.209,2.568-1.459,2.568-2.969v-5.938c0-1.51-1.116-2.76-2.568-2.969   c1.452-0.209,2.568-1.459,2.568-2.969v-5.938c0-1.51-1.116-2.76-2.568-2.969c1.452-0.209,2.568-1.459,2.568-2.969v-5.939   c0-1.51-1.116-2.76-2.568-2.969c1.452-0.209,2.568-1.459,2.568-2.969v-5.938c0-1.51-1.116-2.76-2.568-2.969   c1.452-0.209,2.568-1.459,2.568-2.969v-5.938c0-1.51-1.116-2.76-2.568-2.969c1.452-0.209,2.568-1.459,2.568-2.969v-5.938   c0-1.149-0.653-2.135-1.601-2.639l22.37-0.413c5.953-0.109,10.797-5.043,10.797-10.998v-32.539   C552.05,121.523,547.206,116.589,541.253,116.48z M502.496,161.728l16.06-11.757l15.24,11.18L502.496,161.728z M178.612,209.06   l26.323-23.624l26.323,23.624H178.612z M230.979,219.06l-26.044,22.725L178.89,219.06H230.979z M197.33,248.421l-27.707,24.176   l0.76-47.688L197.33,248.421z M177.78,278.75l27.155-23.694l27.155,23.694H177.78z M231.842,288.75l-26.896,22.904l-26.912-22.904   H231.842z M197.234,318.221l-28.735,24.47l0.775-48.266L197.234,318.221z M177.17,348.44l27.778-23.654l27.794,23.654H177.17z    M232.921,358.44l-27.973,23.027L176.99,358.44H232.921z M197.081,387.943l-29.695,24.444l0.769-48.268L197.081,387.943z    M176.156,418.12l28.79-23.699l28.774,23.699H176.156z M233.473,428.12l-28.538,22.979l-28.538-22.979H233.473z M196.962,457.518   l-30.689,24.71l0.778-48.795L196.962,457.518z M175.287,487.81l29.648-23.872l29.648,23.872H175.287z M234.247,497.81   l-29.405,22.98l-29.271-22.98H234.247z M196.726,527.132l-31.56,24.664l0.777-48.831L196.726,527.132z M174.107,557.5l30.72-24.008   l30.581,24.008H174.107z M234.957,567.5l-29.949,22.615L174.955,567.5H234.957z M164.838,572.402l31.868,23.981l-32.644,24.65   L164.838,572.402z M205.017,602.638l32.614,24.543h-65.116L205.017,602.638z M213.319,596.369l31.714-23.947l0.771,48.392   L213.319,596.369z M212.943,527.15l30.982-24.212l0.783,49.15L212.943,527.15z M212.907,457.518l29.912-24.085l0.777,48.795   L212.907,457.518z M212.813,387.945l28.902-23.792l0.769,48.23L212.813,387.945z M212.659,318.219l27.937-23.79l0.775,48.225   L212.659,318.219z M212.54,248.421l26.947-23.512l0.76,47.688L212.54,248.421z M212.421,178.717l25.959-23.298l0.753,47.272   L212.421,178.717z M212.203,39.521l23.969-22.688l0.734,46.064L212.203,39.521z M229.537,69.69H180.33l24.6-23.285L229.537,69.69z    M204.929,32.637L181.007,10h47.838L204.929,32.637z M197.656,39.522l-24.693,23.373l0.733-46.045L197.656,39.522z M229.314,79.69   l-24.379,22.521L180.556,79.69H229.314z M237.274,85.95l0.746,46.823l-25.717-23.756L237.274,85.95z M230.424,139.37h-39.743   v-10.378l14.254-13.168L230.424,139.37z M180.681,139.37h-1.235l1.235-1.14V139.37z M172.034,121.198l0.024-1.53l1.523,0.028   L172.034,121.198z M172.678,167.816l-1.386,0.026l0.022-1.382L172.678,167.816z M179.722,149.37h0.958v0.86L179.722,149.37z    M190.681,149.37h39.467l-25.213,22.628l-14.254-12.793V149.37z M250.91,127.27l18.271,16.478l-18.271,16.478V127.27z    M491.82,130.357l18.28,13.41l-18.28,13.383V130.357z M481.82,156.678l-16.326-12.965l16.326-12.918V156.678z M502.469,125.767   l31.427,0.579l-15.335,11.227L502.469,125.767z M457.451,137.325l-15.97-12.682l31.269,0.576L457.451,137.325z M404.925,143.701   l16.665-13.845v27.646L404.925,143.701z M397.087,137.21l-16.532-13.691l32.296,0.595L397.087,137.21z M344.535,143.747   l16.825-14.553v29.107L344.535,143.747z M336.892,137.136l-17.035-14.735l33.358,0.615L336.892,137.136z M284.112,143.747   l17.029-15.358v30.715L284.112,143.747z M311.141,128.084l18.108,15.663l-18.108,15.663V128.084z M276.646,137.014l-17.452-15.739   l34.198,0.636L276.646,137.014z M276.646,150.48l16.747,15.103l-34.198,0.636L276.646,150.48z M336.892,150.359l16.323,14.12   l-33.358,0.615L336.892,150.359z M371.36,128.89l17.899,14.823l-17.899,14.87V128.89z M397.097,150.203l15.908,13.174   l-32.486,0.599L397.097,150.203z M431.59,129.557l17.807,14.141l-17.807,14.09V129.557z M457.44,150.086l15.349,12.19l-31.488,0.58   L457.44,150.086z M527.017,143.776l15.033-11.006v22.034L527.017,143.776z M172.596,85.95l24.971,23.067l-6.886,6.361v-5.369   l-18.463-0.34L172.596,85.95z M161.876,131.059l-6.063,5.886l-18.013-17.91l24.26,0.447L161.876,131.059z M95.888,136.631   l-18.472-18.708l36.283,0.669L95.888,136.631z M120.45,125.988v35.519l-17.535-17.76L120.45,125.988z M42.613,143.694   l17.617-18.497v37.066L42.613,143.694z M35.722,136.43l-18.614-19.619l36.656,0.675L35.722,136.43z M28.816,143.681L10,163.437   v-39.588L28.816,143.681z M35.708,150.945l18.086,19.062l-36.888,0.68L35.708,150.945z M70.23,124.878l18.631,18.87l-18.631,18.87   V124.878z M95.888,150.864l17.812,18.039l-36.284,0.669L95.888,150.864z M130.45,125.83l18.187,18.083l-18.187,17.656V125.83z    M137.707,168.461l18.022-17.497l5.74,5.707l-0.181,11.355L137.707,168.461z M190.681,177.486v-4.843l6.768,6.074l-26.712,23.974   l0.396-24.845L190.681,177.486z"/>
	<g>
		<path fill="#FF2E93" d="M242.464,192.996h-73.948c-9.768,0-17.687-7.919-17.687-17.687V113.13c0-9.768,7.919-17.687,17.687-17.687    h73.948c9.768,0,17.687,7.919,17.687,17.687v62.178C260.151,185.077,252.232,192.996,242.464,192.996z"/>
	</g>
	<g>
		<path fill="#00E6B3" d="M244.708,119.264v27.45h-76.93v-27.45c0-5.01,4.06-9.08,9.08-9.08h58.77c0.48,0,0.95,0.04,1.41,0.1    c2.17,0.35,4.08,1.45,5.45,3.03C243.878,114.914,244.708,116.994,244.708,119.264z"/>
	</g>
	<g>
		<path fill="#142664" d="M168.516,194.996c-10.855,0-19.688-8.832-19.688-19.688V113.13c0-10.856,8.832-19.688,19.688-19.688    h73.948c10.855,0,19.688,8.832,19.688,19.688c0,1.104-0.896,2-2,2s-2-0.896-2-2c0-8.65-7.037-15.688-15.688-15.688h-73.948    c-8.65,0-15.688,7.038-15.688,15.688v62.178c0,8.65,7.037,15.688,15.688,15.688c1.104,0,2,0.896,2,2    S169.62,194.996,168.516,194.996z"/>
	</g>
	<g>
		<path fill="#142664" d="M232.018,181.215h-28.644c-1.104,0-2-0.896-2-2s0.896-2,2-2h28.644c5.895,0,10.69-4.796,10.69-10.69    c0-1.104,0.896-2,2-2s2,0.896,2,2C246.708,174.625,240.118,181.215,232.018,181.215z"/>
	</g>
	<g>
		<path fill="#142664" d="M244.708,155.882c-1.104,0-2-0.896-2-2v-19.415c0-1.104,0.896-2,2-2s2,0.896,2,2v19.415    C246.708,154.986,245.813,155.882,244.708,155.882z"/>
	</g>
	<g>
		<path fill="#142664" d="M244.708,123.914c-1.104,0-2-0.896-2-2c0-5.895-4.796-10.69-10.69-10.69c-1.104,0-2-0.896-2-2s0.896-2,2-2    c8.101,0,14.69,6.59,14.69,14.69C246.708,123.018,245.813,123.914,244.708,123.914z"/>
	</g>
	<g>
		<path fill="#142664" d="M489.651,371.306c1.208,1.296,2.76,2.796,4.434,4.484c2.553,2.557,6.139,5.726,9.174,8.452    c0.587,0.58,1.377,0.815,2.183,0.827c1.389,0.009,3.757,0.132,5.643,0.087c0.583-0.003,1.096-0.281,1.402-0.797    c0.306-0.516,0.302-1.099-0.061-1.663c-2.216-3.52-6.163-9.808-8.402-14.271c-0.399-0.701-0.711-1.351-1.11-2.052    c-0.399-0.701-0.284-1.679,0.295-2.266l0,0c1.312-1.431,2.828-3.207,4.258-5.033c5.719-7.305,11.585-16.035,11.585-16.035    c2.146-2.448,1.868-6.099-0.494-8.195c-2.448-2.147-6.099-1.868-8.195,0.494c0,0-7.985,7.01-14.498,13.497    c-1.688,1.673-3.239,3.312-4.465,4.794c-0.58,0.586-1.073,1.224-1.516,1.775l0,0C483.835,362.285,480.923,362.885,489.651,371.306    L489.651,371.306z"/>
	</g>
	<g>
		<circle fill="#00E6B3" cx="517.252" cy="337.443" r="12"/>
	</g>
	<g>
		<path fill="#142664" d="M544.108,372.169c-1.21,1.259-2.796,2.76-4.57,4.383c-2.643,2.502-6.227,5.61-9.332,8.304    c-0.666,0.536-1.402,0.797-2.208,0.785c-1.389-0.009-3.722,0.005-5.694-0.001c-0.583,0.003-1.099-0.302-1.377-0.815    s-0.23-1.182,0.076-1.698c2.312-3.512,6.34-9.727,8.715-14.132c0.408-0.688,0.729-1.428,1.137-2.116    c0.408-0.688,0.248-1.596-0.202-2.211l0,0c-1.329-1.484-2.729-3.242-4.163-5.138c-5.48-7.428-11.261-16.312-11.261-16.312    c-2.021-2.475-1.717-6.13,0.672-8.202c2.475-2.021,6.13-1.717,8.202,0.672c0,0,7.829,7.191,14.264,13.79    c1.673,1.688,3.124,3.36,4.402,4.93c0.536,0.666,1.071,1.331,1.486,1.809l0,0C550.024,363.353,552.943,363.919,544.108,372.169    L544.108,372.169L544.108,372.169z"/>
	</g>
	<g>
		<path fill="#FF2E93" d="M535.738,366.284c0,0,1.064,0.165,2.575,0.362c0.755,0.098,1.647,0.162,2.59,0.139    c0.583-0.003,1.08-0.058,1.577-0.112c1.988-0.217,3.616-0.416,3.616-0.416c0.806,0.012,1.437-0.66,1.398-1.38    c0.012-0.806-0.66-1.437-1.38-1.398c0,0-1.596-0.248-3.604-0.39c-0.446-0.032-1.029-0.028-1.561-0.111    c-0.943,0.023-1.8,0.096-2.571,0.221c-1.491,0.163-2.536,0.358-2.536,0.358c-0.806-0.012-1.437,0.66-1.398,1.38    C534.259,365.641,534.932,366.272,535.738,366.284z"/>
	</g>
	<g>
		<path fill="#FF2E93" d="M488.22,364.3c0,0,0.841,0.149,2.129,0.33c0.669,0.048,1.424,0.146,2.093,0.193    c0.446,0.032,0.857-0.074,1.217-0.093c1.628-0.198,2.947-0.463,2.947-0.463c0.806,0.012,1.437-0.66,1.398-1.38    c0.012-0.806-0.66-1.437-1.38-1.398c0,0-1.322-0.318-2.884-0.429c-0.446-0.032-0.892-0.063-1.252-0.044    c-0.72,0.039-1.44,0.077-2.074,0.167c-1.217,0.093-2.09,0.39-2.09,0.39c-0.806-0.012-1.437,0.66-1.398,1.38    C486.793,363.571,487.414,364.288,488.22,364.3L488.22,364.3z"/>
	</g>
	<g>
		<path fill="#142664" d="M217.969,155.882h12.212c0.726,0,1.315-0.589,1.315-1.315v-1.37c0-0.726-0.589-1.315-1.315-1.315h-12.212    c-0.726,0-1.315,0.589-1.315,1.315v1.37C216.655,155.293,217.243,155.882,217.969,155.882z"/>
	</g>
	<g>
		<path fill="#142664" d="M225.825,161.992h3.671c1.105,0,2-0.895,2-2l0,0c0-1.105-0.895-2-2-2h-3.671c-1.105,0-2,0.895-2,2l0,0    C223.825,161.096,224.721,161.992,225.825,161.992z"/>
	</g>
	<g>
		<g>
			<polygon fill="#FFFFFF" points="226.828,110.184 190.078,146.715 168.218,146.715 204.978,110.184    "/>
		</g>
		<g>
			<path fill="#FFFFFF" d="M242.488,113.314l-33.6,33.4h-8.5l36.65-36.43C239.208,110.634,241.118,111.735,242.488,113.314z"/>
		</g>
	</g>
	<g>
		<path fill="#142664" d="M178.962,181.215c-8.101,0-14.69-6.59-14.69-14.69v-44.611c0-8.1,6.59-14.69,14.69-14.69h53.056    c8.101,0,14.69,6.59,14.69,14.69c0,1.104-0.896,2-2,2s-2-0.896-2-2c0-5.895-4.796-10.69-10.69-10.69h-53.056    c-5.895,0-10.69,4.795-10.69,10.69v44.611c0,5.895,4.796,10.69,10.69,10.69c1.104,0,2,0.896,2,2S180.066,181.215,178.962,181.215z    "/>
	</g>
</g>
</svg></g><!--ITEM: Illustration component 6--><g transform="translate(1743.75 2497.5) rotate(0.0 211.875 125.625)  scale(2.180905815748842 2.1622203098106714)"><svg width="194.3" height="116.2" viewBox="0.0 0.0 194.3 116.2"><path d="M8,0C3.6,0,0,3.6,0,8c0,21.3,0,79.6,0,100.6c0,2,0.8,4,2.2,5.4s3.4,2.2,5.4,2.2c31.2,0,148,0,179.1,0  c2,0,4-0.8,5.4-2.2s2.2-3.4,2.2-5.4c0-21.1,0-79.8,0-100.9c0-2-0.8-4-2.2-5.4s-3.4-2.2-5.4-2.2C155.7,0,39.5,0,8,0L8,0z" style="fill:#142664;"/>
</svg></g><!--ITEM: Illustration component 7--><g transform="translate(2235.0 2553.75) rotate(0.0 163.125 97.5)  scale(1.6791044776119401 1.6781411359724612)"><svg width="194.3" height="116.2" viewBox="0.0 0.0 194.3 116.2"><path d="M8,0C3.6,0,0,3.6,0,8c0,21.3,0,79.6,0,100.6c0,2,0.8,4,2.2,5.4s3.4,2.2,5.4,2.2c31.2,0,148,0,179.1,0  c2,0,4-0.8,5.4-2.2s2.2-3.4,2.2-5.4c0-21.1,0-79.8,0-100.9c0-2-0.8-4-2.2-5.4s-3.4-2.2-5.4-2.2C155.7,0,39.5,0,8,0L8,0z" style="fill:#142664;"/>
</svg></g><!--ITEM: Illustration component 8--><g transform="translate(1072.5 2137.5) rotate(89.99999999999996 382.5 228.75)  scale(3.937210499227998 3.9371772805507743)"><svg width="194.3" height="116.2" viewBox="0.0 0.0 194.3 116.2"><path d="M8,0C3.6,0,0,3.6,0,8c0,21.3,0,79.6,0,100.6c0,2,0.8,4,2.2,5.4s3.4,2.2,5.4,2.2c31.2,0,148,0,179.1,0  c2,0,4-0.8,5.4-2.2s2.2-3.4,2.2-5.4c0-21.1,0-79.8,0-100.9c0-2-0.8-4-2.2-5.4s-3.4-2.2-5.4-2.2C155.7,0,39.5,0,8,0L8,0z" style="fill:#142664;"/>
</svg></g><!--ITEM: Illustration component 9--><g transform="translate(1803.75 2523.75) rotate(0.0 159.375 82.5)  scale(4.844224924012158 4.782608695652174)"><svg width="65.8" height="34.5" viewBox="0.0 0.0 65.8 34.5"><g>
	<g>
		<rect x="29.4" y="11.2" width="36.4" height="18.8" style="fill:#00E6B3;"/>
		<g>
			<path d="M29.4,19.1c-1,0-1.8-0.8-1.8-1.8v-6.1c0-1,0.8-1.8,1.8-1.8h6.1c1,0,1.8,0.8,1.8,1.8     C37.3,15.6,33.7,19.1,29.4,19.1z M31.2,13v2.1c0.9-0.4,1.7-1.2,2.1-2.1H31.2z" style="fill:#142664;"/>
		</g>
		<path d="M65.8,11.2h-6.1l0,0c0,3.3,2.7,6,6.1,6V11.2z" style="fill:#142664;"/>
		<path d="M29.4,30.1V24l0,0c3.3,0,6,2.7,6,6.1H29.4z" style="fill:#142664;"/>
		<path d="M65.8,30.1V24l0,0c-3.3,0-6,2.7-6,6.1H65.8z" style="fill:#142664;"/>
		<ellipse cx="47.589" cy="20.643" rx="5" ry="5" style="fill:#142664;"/>
	</g>
	<g>
		<path d="M31.5,0L0,18.2l9.4,16.3l31.5-18.2L31.5,0L31.5,0z" style="fill:#00E6B3;"/>
		<path d="M0,18.2l5.3-3l0,0C7,18.1,6,21.8,3.1,23.5L0,18.2L0,18.2z" style="fill:#142664;"/>
		<path d="M31.5,0l-5.3,3l0,0c1.7,2.9,5.4,3.9,8.3,2.2L31.5,0L31.5,0z" style="fill:#142664;"/>
		<path d="M9.4,34.5l-3-5.3l0,0c2.9-1.6,6.6-0.6,8.3,2.2L9.4,34.5L9.4,34.5z" style="fill:#142664;"/>
		<path d="M40.9,16.4l-3-5.3l0,0c-2.9,1.7-3.9,5.4-2.2,8.3L40.9,16.4L40.9,16.4z" style="fill:#142664;"/>
		<path d="M17.9,13c2.4-1.4,5.4-0.6,6.8,1.8c1.4,2.4,0.6,5.4-1.8,6.8c-2.4,1.4-5.4,0.6-6.8-1.8    C14.8,17.4,15.6,14.4,17.9,13z" style="fill:#142664;"/>
	</g>
	<path d="M40.9,16.4l-5.3-9.1c-0.6-1.1-0.3-2.5,0.8-3.1s2.5-0.3,3.1,0.8l6.4,11c0.6,1.1,0.3,2.5-0.8,3.1L24.6,30.9   c-1.1,0.6-2.5,0.3-3.1-0.8s-0.3-2.5,0.8-3.1L40.9,16.4L40.9,16.4z" style="fill:#142664;"/>
</g>
</svg></g><!--ITEM: Illustration component 10--><g transform="translate(1113.75 1038.75) rotate(0.0 684.375 519.375)  scale(3.8599830795262267 3.8500741289844327)"><svg width="354.6" height="269.8" viewBox="0.0 0.0 354.6 269.8"><g>
	<path d="M352.6,11.6c0-2.6-1-5-2.8-6.8S345.5,2,343,2H11.6C9,2,6.6,3,4.8,4.8S2,9.1,2,11.6v246.6c0,2.6,1,5,2.8,6.8   s4.3,2.8,6.8,2.8H343c2.6,0,5-1,6.8-2.8s2.8-4.3,2.8-6.8L352.6,11.6L352.6,11.6z" style="fill:#FFFFFF;"/>
	<path d="M354.5,11.6c0-3.1-1.2-6-3.4-8.2S346,0,342.9,0H11.6c-3.1,0-6,1.2-8.2,3.4S0,8.5,0,11.6v246.6   c0,3.1,1.2,6,3.4,8.2s5.1,3.4,8.2,3.4c50.2,0,281.2,0,331.4,0c3.1,0,6-1.2,8.2-3.4c2.2-2.2,3.4-5.1,3.4-8.2V11.6H354.5z    M350.7,11.6v246.6c0,2.1-0.8,4-2.3,5.5c-1.4,1.4-3.4,2.3-5.5,2.3c-50.2,0-281.2,0-331.4,0c-2.1,0-4-0.8-5.5-2.3   c-1.4-1.4-2.3-3.4-2.3-5.5V11.6c0-2.1,0.8-4,2.3-5.5c1.5-1.4,3.4-2.3,5.5-2.3h331.4c2.1,0,4,0.8,5.5,2.3S350.7,9.6,350.7,11.6z" style="fill:#142664;"/>
	<g>
		<path d="M202.1,35.818h-58.7c-0.626,0-1.212-0.306-1.571-0.818c-0.358-0.513-0.444-1.169-0.23-1.757    c0.001-0.002,2.696-7.393,4.894-13.585c2.063-5.73,7.571-9.576,13.708-9.576h25.2c6.229,0,11.605,3.752,13.7,9.559    c5.403,14.567,5.403,14.567,4.354,15.615C203.096,35.616,202.608,35.818,202.1,35.818z M200.22,34.235h0.011H200.22z     M146.138,31.982h53.341c-0.853-2.461-2.337-6.596-3.977-11.016c-0.002-0.006-0.004-0.012-0.007-0.018    c-1.537-4.271-5.5-7.031-10.095-7.031h-25.2c-4.524,0-8.582,2.825-10.096,7.031C148.713,24.87,147.12,29.274,146.138,31.982z" style="fill:#142664;"/>
		<path d="M266.9,35.818h-58.7c-0.626,0-1.213-0.306-1.571-0.818c-0.358-0.514-0.444-1.169-0.23-1.757    c0.001-0.002,2.697-7.393,4.894-13.584c2.064-5.731,7.572-9.577,13.708-9.577h25.2c6.229,0,11.606,3.752,13.7,9.56    c5.402,14.559,5.402,14.559,4.362,15.608C267.902,35.613,267.412,35.818,266.9,35.818z M265.022,34.236h0.01H265.022z     M210.939,31.982h53.339c-0.86-2.485-2.359-6.66-3.976-11.016c-0.002-0.006-0.004-0.012-0.007-0.018    c-1.537-4.271-5.5-7.031-10.095-7.031H225c-4.524,0-8.581,2.825-10.097,7.031C213.514,24.87,211.921,29.274,210.939,31.982z" style="fill:#142664;"/>
	</g>
	<path d="M80.3,29.5l3.3-9.2c1.8-5,6.5-8.3,11.9-8.3c7.4,0,17.8,0,25.2,0c5.3,0,10.1,3.3,11.9,8.3l3.3,9.2h198.9   c5.1,0,9.2,4.1,9.2,9.2v32.9H10.6c0,0,0-20.5,0-32.9c0-5.1,4.1-9.2,9.2-9.2L80.3,29.5L80.3,29.5z" style="fill:#00E6B3;"/>
	<path d="M8.7,75.3v179.3c0,3.7,3,6.7,6.7,6.7c37.7,0,286,0,323.7,0c3.7,0,6.7-3,6.7-6.7c0-29,0-179.3,0-179.3   c0-1.1-0.9-1.9-1.9-1.9c-1.1,0-1.9,0.9-1.9,1.9c0,0,0,150.3,0,179.3c0,1.6-1.3,2.9-2.9,2.9c-37.7,0-286,0-323.7,0   c-1.6,0-2.9-1.3-2.9-2.9V75.3c0-1.1-0.9-1.9-1.9-1.9C9.6,73.4,8.7,74.2,8.7,75.3L8.7,75.3z" style="fill:#142664;"/>
	<circle cx="17.3" cy="15.5" r="6.7" style="fill:#FF2E93;"/>
	<circle cx="37.7" cy="15.5" r="6.7" style="fill:#142664;"/>
	<circle cx="58" cy="15.5" r="6.7" style="fill:#00E6B3;"/>
</g>
</svg></g><!--ITEM: Illustration component 11--><g transform="translate(2403.75 2096.25) rotate(-47.25962093508514 148.125 148.125)  scale(3.123155098254196 3.154011583340431)"><svg width="94.856" height="93.928" viewBox="0.0 0.0 94.856 93.928"><g>
	<path fill="#142664" d="M94.856,46.285c0-1.554-0.076-3.113-0.227-4.661c-0.151-1.552-1.589-2.653-3.129-2.408l-9.488,1.506   c-1.407,0.223-2.726-0.687-3.059-2.073c-1.185-4.94-3.493-9.441-6.639-13.222c-0.914-1.098-0.856-2.703,0.168-3.698l6.891-6.697   c1.116-1.085,1.098-2.894-0.051-3.944c-5.832-5.332-12.816-9.09-20.456-11.007c-1.51-0.379-3.03,0.605-3.318,2.135l-1.779,9.445   c-0.264,1.4-1.563,2.338-2.979,2.181c-1.175-0.131-2.368-0.199-3.577-0.199c-3.902,0-7.641,0.69-11.108,1.948   c-1.345,0.488-2.838-0.107-3.428-1.41l-3.97-8.753c-0.643-1.418-2.352-2.013-3.729-1.287c-6.963,3.67-12.856,8.959-17.26,15.492   c-0.87,1.29-0.463,3.053,0.877,3.846l8.272,4.893c1.229,0.727,1.662,2.272,1.032,3.553c-2.129,4.334-3.328,9.206-3.328,14.361   c0,0.009,0,0.017,0,0.026c0.001,1.438-1.062,2.651-2.495,2.764l-9.57,0.75c-1.552,0.122-2.694,1.526-2.48,3.068   c1.082,7.814,4.065,15.165,8.739,21.532c0.921,1.255,2.718,1.467,3.916,0.473l7.393-6.132c1.099-0.911,2.7-0.797,3.694,0.228   c3.442,3.551,7.684,6.32,12.434,8.021c1.342,0.481,2.105,1.89,1.73,3.265l-2.525,9.274c-0.409,1.502,0.527,3.052,2.051,3.369   c3.198,0.666,6.468,1.003,9.755,1.003c4.575,0,9.079-0.646,13.427-1.922c1.494-0.439,2.305-2.058,1.777-3.523l-3.256-9.039   c-0.483-1.341,0.165-2.807,1.464-3.394c4.579-2.067,8.594-5.162,11.755-8.988c0.909-1.1,2.496-1.34,3.663-0.519l7.862,5.532   c1.273,0.896,3.049,0.542,3.867-0.782C92.415,63.782,94.856,55.195,94.856,46.285z"/>
	<circle fill="#00E6B3" cx="47.428" cy="45.77" r="10.857"/>
</g>
</svg></g><!--ITEM: Illustration component 12--><g transform="translate(1755.0 1462.5) rotate(0.0 206.25 206.25)  scale(10.469543147208123 10.429044573104443)"><svg width="39.4" height="39.553" viewBox="0.0 0.0 39.4 39.553"><g>
	<path d="M22.4,32.403C22.4,32.403,22.3,32.403,22.4,32.403c-1.9,0.4-3.7,0.4-5.4,0l-1.4,6.7c2.6,0.6,5.3,0.6,8.1,0h0.1   L22.4,32.403L22.4,32.403z M29.3,28.503c-1.2,1.3-2.7,2.4-4.4,3.1l2.8,6.3c2.6-1.1,4.8-2.8,6.7-4.8L29.3,28.503z M14.5,31.603   c-1.7-0.7-3.1-1.8-4.4-3.2l-5.1,4.6c1.9,2.1,4.1,3.7,6.6,4.8L14.5,31.603L14.5,31.603z M32.6,21.203c-0.2,1.8-0.8,3.6-1.7,5.1   l5.9,3.4c1.4-2.4,2.3-5,2.6-7.8L32.6,21.203z M31,13.403c0.7,1.2,1.2,2.4,1.4,3.8c0.1,0.4,0.2,0.9,0.2,1.3l6.8-0.7   c-0.1-0.7-0.2-1.3-0.3-2c-0.4-2.1-1.2-4.1-2.2-5.8L31,13.403L31,13.403z M25.1,8.003c1.6,0.7,3.1,1.8,4.3,3.2l5.1-4.6   c-1.8-2.1-4.1-3.7-6.6-4.9L25.1,8.003L25.1,8.003z M15.8,0.403c2.8-0.6,5.6-0.5,8.2,0.1l-1.5,6.7c-1.7-0.4-3.5-0.4-5.4,0   c-0.1,0-0.1,0-0.2,0l-1.4-6.7C15.6,0.403,15.7,0.403,15.8,0.403L15.8,0.403z" style="fill:#142664;"/>
	<path d="M8.5,26.203c-0.7-1.2-1.2-2.5-1.5-3.9c-0.1-0.4-0.1-0.8-0.2-1.2l-6.8,0.7c0.1,0.6,0.2,1.2,0.3,1.9   c0.4,2.1,1.2,4.1,2.3,5.9L8.5,26.203z M6.8,18.403c0.2-1.8,0.8-3.6,1.7-5.1l-5.9-3.4c-1.4,2.4-2.2,5-2.5,7.8L6.8,18.403z    M10.1,11.103c1.2-1.3,2.7-2.4,4.3-3.2l-2.8-6.2c-2.6,1.2-4.8,2.8-6.6,4.9L10.1,11.103L10.1,11.103z" style="fill:#FF2E93;"/>
</g>
</svg></g><!--ITEM: Illustration component 13--><g transform="translate(2550.0 1672.5) rotate(-21.669917926518956 200.625 200.625)  scale(2.444812731914479 2.459966158222571)"><svg width="164.123" height="163.112" viewBox="0.0 0.0 164.123 163.112"><g>
	<path fill="#FF2E93" d="M147.437,85.718c0.978-12.142-1.474-23.835-6.57-34.085c-0.714-1.436-0.173-3.176,1.231-3.952l10.083-5.576   c1.491-0.825,2.001-2.726,1.119-4.185c-7.878-13.035-19.388-23.814-32.871-30.784c-1.514-0.783-3.378-0.147-4.101,1.396   l-4.888,10.433c-0.68,1.452-2.38,2.109-3.86,1.493c-5.262-2.19-10.897-3.725-16.826-4.476c-6.006-0.761-11.92-0.666-17.63,0.173   c-1.586,0.233-3.071-0.822-3.373-2.397L67.58,2.441c-0.321-1.674-1.971-2.749-3.631-2.363C49.165,3.516,35.357,11.133,24.512,21.83   c-1.213,1.197-1.187,3.165,0.055,4.332l8.401,7.886c1.169,1.098,1.265,2.917,0.22,4.134c-8.026,9.338-13.504,21.047-15.167,34.177   c-0.003,0.025-0.004,0.049-0.008,0.074l-14.326-1.8c-1.688-0.212-3.22,1.019-3.369,2.714C0.107,75.768,0,78.204,0,80.618   c0,12.811,3.03,25.53,8.787,36.981c0.767,1.525,2.647,2.112,4.142,1.287l10.089-5.565c1.403-0.774,3.164-0.307,3.999,1.061   c6.08,9.966,14.793,18.244,25.314,23.769c1.417,0.744,1.995,2.471,1.314,3.92l-4.902,10.43c-0.724,1.541-0.024,3.38,1.544,4.046   c6.973,2.959,14.33,4.943,21.913,5.903c3.464,0.438,6.982,0.661,10.462,0.661c4.12-0.001,8.251-0.312,12.321-0.928   c1.685-0.255,2.823-1.862,2.504-3.536l-2.158-11.321c-0.3-1.572,0.689-3.102,2.246-3.471c11.562-2.74,22.057-8.596,30.422-16.741   c1.148-1.118,2.97-1.133,4.137-0.035l8.394,7.897c1.24,1.167,3.205,1.07,4.325-0.213c10.165-11.642,16.764-25.713,19.232-41.011   c0.274-1.7-0.901-3.26-2.611-3.465l-11.408-1.365C148.47,88.733,147.308,87.318,147.437,85.718z"/>
	<circle fill="#142664" cx="82.062" cy="81.556" r="21.476"/>
</g>
</svg></g><!--ITEM: Illustration component 14--><g transform="translate(2175.0 2287.5) rotate(0.0 108.75 108.75)  scale(2.292949312642321 2.315603440933481)"><svg width="94.856" height="93.928" viewBox="0.0 0.0 94.856 93.928"><g>
	<path fill="#142664" d="M94.856,46.285c0-1.554-0.076-3.113-0.227-4.661c-0.151-1.552-1.589-2.653-3.129-2.408l-9.488,1.506   c-1.407,0.223-2.726-0.687-3.059-2.073c-1.185-4.94-3.493-9.441-6.639-13.222c-0.914-1.098-0.856-2.703,0.168-3.698l6.891-6.697   c1.116-1.085,1.098-2.894-0.051-3.944c-5.832-5.332-12.816-9.09-20.456-11.007c-1.51-0.379-3.03,0.605-3.318,2.135l-1.779,9.445   c-0.264,1.4-1.563,2.338-2.979,2.181c-1.175-0.131-2.368-0.199-3.577-0.199c-3.902,0-7.641,0.69-11.108,1.948   c-1.345,0.488-2.838-0.107-3.428-1.41l-3.97-8.753c-0.643-1.418-2.352-2.013-3.729-1.287c-6.963,3.67-12.856,8.959-17.26,15.492   c-0.87,1.29-0.463,3.053,0.877,3.846l8.272,4.893c1.229,0.727,1.662,2.272,1.032,3.553c-2.129,4.334-3.328,9.206-3.328,14.361   c0,0.009,0,0.017,0,0.026c0.001,1.438-1.062,2.651-2.495,2.764l-9.57,0.75c-1.552,0.122-2.694,1.526-2.48,3.068   c1.082,7.814,4.065,15.165,8.739,21.532c0.921,1.255,2.718,1.467,3.916,0.473l7.393-6.132c1.099-0.911,2.7-0.797,3.694,0.228   c3.442,3.551,7.684,6.32,12.434,8.021c1.342,0.481,2.105,1.89,1.73,3.265l-2.525,9.274c-0.409,1.502,0.527,3.052,2.051,3.369   c3.198,0.666,6.468,1.003,9.755,1.003c4.575,0,9.079-0.646,13.427-1.922c1.494-0.439,2.305-2.058,1.777-3.523l-3.256-9.039   c-0.483-1.341,0.165-2.807,1.464-3.394c4.579-2.067,8.594-5.162,11.755-8.988c0.909-1.1,2.496-1.34,3.663-0.519l7.862,5.532   c1.273,0.896,3.049,0.542,3.867-0.782C92.415,63.782,94.856,55.195,94.856,46.285z"/>
	<circle fill="#00E6B3" cx="47.428" cy="45.77" r="10.857"/>
</g>
</svg></g><!--ITEM: Illustration component 15--><g transform="translate(1751.25 2265.0) rotate(0.0 163.125 97.5)  scale(1.6791044776119401 1.6781411359724612)"><svg width="194.3" height="116.2" viewBox="0.0 0.0 194.3 116.2"><path d="M8,0C3.6,0,0,3.6,0,8c0,21.3,0,79.6,0,100.6c0,2,0.8,4,2.2,5.4s3.4,2.2,5.4,2.2c31.2,0,148,0,179.1,0  c2,0,4-0.8,5.4-2.2s2.2-3.4,2.2-5.4c0-21.1,0-79.8,0-100.9c0-2-0.8-4-2.2-5.4s-3.4-2.2-5.4-2.2C155.7,0,39.5,0,8,0L8,0z" style="fill:#142664;"/>
</svg></g><!--ITEM: Illustration component 16--><g transform="translate(1162.5 2163.75) rotate(0.0 155.625 -320.625) translate(0.0 -243.75) scale(3.1800766283524906 -3.2078539269634816)"><svg width="96.69578313253012" height="123.91461988304094" viewBox="0.0 75.98538011695906 96.69578313253012 123.91461988304094"><g>
	<path d="M64.4,54.8c-10.3,0-18.7-8.4-18.7-18.7V18.8c0-3.5-2.9-6.4-6.4-6.4H6.2C2.8,12.4,0,9.6,0,6.2   C0,2.8,2.8,0,6.2,0h33.1c10.4,0,18.8,8.4,18.8,18.8v17.3c0,3.5,2.8,6.3,6.3,6.3h9.4c6.4,0,11.6,5.2,11.6,11.6v70.9   c0,10.8-8.8,19.6-19.6,19.6H42c-8.2,0-14.8,6.6-14.8,14.8c0,8.1,6.6,14.8,14.8,14.8h20.9c3.4,0,6.2,2.8,6.2,6.2s-2.8,6.2-6.2,6.2   H42c-15,0-27.2-12.2-27.2-27.2S27,132.1,42,132.1h23.8c4,0,7.3-3.3,7.3-7.3v-70L64.4,54.8L64.4,54.8z" style="fill:#FF2E93;"/>
	<path d="M52.4,186.5h5v-12.4h-5V186.5z M33.2,185c2,0.7,4.1,1.1,6.3,1.3l1.2-12.3c-1.2-0.1-2.3-0.4-3.4-0.7L33.2,185   L33.2,185z M17.1,170.2c0.9,2,2,3.8,3.2,5.5l9.9-7.5c-0.7-0.9-1.3-1.9-1.8-3L17.1,170.2L17.1,170.2z M17.1,148.4   c-0.9,1.9-1.5,4-1.9,6.1l12.2,2.2c0.2-1.2,0.6-2.3,1-3.3L17.1,148.4z M33.2,133.6c-2,0.7-4,1.6-5.8,2.8l6.6,10.5   c1-0.6,2-1.1,3.1-1.5L33.2,133.6L33.2,133.6z M65.8,132.2c0.7,0,1.4-0.1,2.1-0.3l3.6,11.9c-1.8,0.6-3.7,0.8-5.7,0.8h-1v-12.4H65.8z    M52.4,132.2h-5v12.4h5V132.2z M73.1,124.7v0.2c0,0.9-0.2,1.7-0.4,2.5l11.6,4.3c0.8-2.1,1.2-4.4,1.2-6.8v-0.2H73.1z M73.1,107.4v5   h12.4v-5H73.1z M73.1,90v5h12.4v-5H73.1z M73.1,72.7v5h12.4v-5H73.1z M73.1,55.3v5h12.4v-5H73.1z M66.3,54.8h5V42.4h-5V54.8z    M46.7,42.3c0.8,2.4,2.1,4.5,3.7,6.3l9.2-8.3c-0.6-0.6-1-1.3-1.3-2.1L46.7,42.3L46.7,42.3z M45.7,23v5h12.4v-5H45.7z M42.5,13.3   c0.7,0.4,1.4,1,1.9,1.7l9.8-7.5c-1.5-2-3.4-3.6-5.5-4.8L42.5,13.3L42.5,13.3z M11.2,12.4h5V0h-5L11.2,12.4z M28.5,12.4h5V0h-5V12.4   z" style="fill:#142664;"/>
	<path d="M59.3,160.6h17.1V186l3.7,6.6c0.8,1.5,0.8,3.3,0,4.8c-0.8,1.3-2.2,2.2-3.7,2.4l0,0l0,0c-0.2,0-0.3,0-0.5,0   c-9.2,0-24,0-33.2,0c-1.7,0-3.3-0.9-4.2-2.4s-0.9-3.3,0-4.8c4.6-8.1,12-21.3,16.6-29.6C55.9,161.6,57.5,160.6,59.3,160.6   L59.3,160.6z" style="fill:#142664;"/>
	<path d="M93,199.9c1.7,0,3.3-0.9,4.2-2.4s0.9-3.3,0-4.8c-4.6-8.1-12-21.3-16.6-29.6c-0.9-1.5-2.5-2.5-4.2-2.5   c-1.8,0-3.4,0.9-4.2,2.5c-4.6,8.3-12,21.4-16.6,29.6c-0.8,1.5-0.8,3.3,0,4.8c0.9,1.5,2.5,2.4,4.2,2.4C69,199.9,83.8,199.9,93,199.9   L93,199.9z" style="fill:#FF2E93;"/>
	<g>
		<path d="M80.3,179.3c0.4,0,0.8-0.2,1-0.6s0.2-0.8,0-1.1c-1.1-1.9-2.8-5-3.9-7c-0.2-0.4-0.6-0.6-1-0.6s-0.8,0.2-1,0.6    c-1.1,2-2.8,5.1-3.9,7c-0.2,0.4-0.2,0.8,0,1.1c0.2,0.4,0.6,0.6,1,0.6H80.3L80.3,179.3z" style="fill:#142664;"/>
		<path d="M73.2,193.5c0.4,0,0.8-0.2,1-0.6c0.2-0.4,0.2-0.8,0-1.1c-1.1-1.9-2.8-5-3.9-7c-0.2-0.4-0.6-0.6-1-0.6    s-0.8,0.2-1,0.6c-1.1,2-2.8,5.1-3.9,7c-0.2,0.4-0.2,0.8,0,1.1c0.2,0.4,0.6,0.6,1,0.6H73.2z" style="fill:#142664;"/>
		<path d="M87.4,193.5c0.4,0,0.8-0.2,1-0.6c0.2-0.4,0.2-0.8,0-1.1c-1.1-1.9-2.8-5-3.9-7c-0.2-0.4-0.6-0.6-1-0.6    s-0.8,0.2-1,0.6c-1.1,2-2.8,5.1-3.9,7c-0.2,0.4-0.2,0.8,0,1.1s0.6,0.6,1,0.6H87.4z" style="fill:#142664;"/>
	</g>
</g>
</svg></g><!--ITEM: Illustration component 17--><g transform="translate(1113.75 1837.5) rotate(0.0 161.25 166.875)  scale(3.0168381665107575 3.0313351498637604)"><svg width="106.9" height="110.1" viewBox="0.0 0.0 106.9 110.1"><path d="M106.9,12.4c0-6.8-5.5-12.4-12.4-12.4C73.9,0,33,0,12.4,0C5.6,0,0,5.5,0,12.4c0,21.2,0,64.1,0,85.3  c0,6.8,5.5,12.4,12.4,12.4c20.6,0,61.5,0,82.1,0c6.8,0,12.4-5.5,12.4-12.4C106.9,76.5,106.9,33.6,106.9,12.4z" style="fill:#FF2E93;"/>
<rect x="60.5" y="46.8" width="16.3" height="16.3" style="fill:#00E6B3;"/>
<rect x="28.5" y="30.9" width="16.3" height="16.3" style="fill:#FFFFFF;"/>
<rect x="76.6" y="46.6" width="16.3" height="16.3" style="fill:#FFFFFF;"/>
<rect x="60.2" y="31.5" width="16.3" height="16.3" style="fill:#FFFFFF;"/>
<rect x="44.2" y="63.1" width="16.3" height="16.3" style="fill:#00E6B3;"/>
<rect x="60.4" y="63.1" width="16.3" height="16.3" style="fill:#00E6B3;"/>
<rect x="76" y="78.7" width="16.3" height="16.3" style="fill:#00E6B3;"/>
<rect x="28.5" y="78.7" width="16.3" height="16.3" style="fill:#00E6B3;"/>
<path d="M17.1,12.8h-4.6v79.9v3.7v0.9h77.4h1.7h2.9v-4.6v-77v-2.9L17.1,12.8L17.1,12.8z M89.9,17.4v11.4  c-4.2,0-68.6,0-72.8,0V17.4H89.9z M89.9,76.7H78.8V65.3h11.1V76.7z M78.8,60.8V49.4h11.1v11.4H78.8z M78.8,44.8V33.4h11.1v11.4H78.8  z M62.8,60.8V49.4h11.4v11.4H62.8z M74.2,65.3v11.4H62.8V65.3H74.2z M62.8,44.8V33.4h11.4v11.4H62.8z M46.8,60.8V49.4h11.4v11.4  H46.8z M58.2,65.3v11.4H46.8V65.3H58.2z M46.8,44.8V33.4h11.4v11.4H46.8z M30.8,60.8V49.4h11.4v11.4H30.8z M42.2,65.3v11.4H30.8  V65.3H42.2z M30.8,44.8V33.4h11.4v11.4H30.8z M26.3,92.7L26.3,92.7h-9.2V33.4h9.2V92.7h4.6V81.3h11.4v11.4h4.5V81.3h11.4v11.4h4.6  V81.3h11.4v11.4h4.6V81.3h11.1v11.4H26.3z" style="fill:#142664;"/>
</svg></g><!--ITEM: Illustration component 18--><g transform="translate(1458.75 1522.5) rotate(90.0 103.125 48.75)  scale(6.967905405405405 6.701030927835051)"><svg width="29.6" height="14.55" viewBox="0.0 0.0 29.6 14.55"><g>
	<path d="M16.45,10c0,0,0.2-0.9,0.4-2.1c0.1-0.6,0.2-1.4,0.2-2.1c0-0.4,0-0.8-0.1-1.3c-0.2-1.6-0.5-2.9-0.5-2.9   c0-0.9-0.7-1.6-1.6-1.6s-1.6,0.7-1.6,1.6c0,0-0.3,1.3-0.5,2.9c0,0.4-0.1,0.8-0.1,1.3c0,0.7,0.1,1.4,0.2,2.1   c0.2,1.2,0.4,2.1,0.4,2.1c0,0.9,0.7,1.6,1.6,1.6C15.75,11.6,16.45,10.9,16.45,10z" style="fill:#ff2e93;"/>
	<path d="M26.15,14c0,0,0.4-0.1,1-0.5c0.3-0.2,0.6-0.3,0.9-0.6c0.2-0.2,0.3-0.3,0.4-0.5c0.5-0.7,0.7-1.4,0.7-1.4   c0.6-0.6,0.6-1.6,0-2.3c-0.6-0.6-1.6-0.6-2.3,0c0,0-0.6,0.2-1.4,0.7c-0.2,0.1-0.4,0.2-0.5,0.4c-0.3,0.3-0.4,0.6-0.6,0.9   c-0.3,0.6-0.5,1-0.5,1c-0.6,0.6-0.6,1.6,0,2.3C24.55,14.7,25.55,14.7,26.15,14z" style="fill:#ff2e93;"/>
	<path d="M5.75,11.8c0,0-0.1-0.4-0.5-1c-0.2-0.3-0.3-0.6-0.6-0.9c-0.2-0.2-0.3-0.3-0.5-0.4c-0.7-0.5-1.4-0.7-1.4-0.7   c-0.6-0.6-1.6-0.6-2.3,0c-0.6,0.6-0.6,1.6,0,2.3c0,0,0.2,0.6,0.7,1.4c0.1,0.2,0.2,0.4,0.4,0.5c0.3,0.3,0.6,0.4,0.9,0.6   c0.6,0.3,1,0.5,1,0.5c0.6,0.6,1.6,0.6,2.3,0C6.35,13.4,6.35,12.4,5.75,11.8L5.75,11.8z" style="fill:#ff2e93;"/>
</g>
</svg></g><!--ITEM: Illustration component 19--><g transform="translate(2111.25 2220.0) rotate(0.0 76.875 75.0)  scale(1.0479786791719774 1.0696254884623064)"><svg width="146.711" height="140.236" viewBox="0.0 0.0 146.711 140.236"><g>
	<path d="M2.711,120.527c0.3-1.6,0.7-3.2,1-4.8c0.3-1.6,0.7-3.2,1-4.7c0.2-1,0.4-1.9,0.5-2.9c0.4-2.2,0.8-4.5,1.3-6.7   c0.2-0.8-0.2-1.5-1-1.7s-1.5,0.2-1.7,1c-0.8,2.2-1.5,4.4-2.1,6.7c-0.3,1-0.5,1.9-0.7,2.9c-0.3,1.6-0.5,3.3-0.7,4.9   c-0.2,1.7-0.3,3.3-0.3,5c-0.1,0.8,0.5,1.5,1.2,1.6C1.911,121.927,2.611,121.327,2.711,120.527L2.711,120.527z" style="fill:#142664;"/>
	<g>
		<path d="M24.411,138.827c0.1-9.8,1.5-19.3,3.9-28.4c2.5-9.4,6.1-18.2,10.7-26.5c2.8-5,5.9-9.9,9.3-14.4    c8.1-10.7,17.9-20,29.2-27.3c0.7-0.4,0.9-1.3,0.4-2c-0.4-0.7-1.3-0.9-2-0.4c-11.7,7.3-22.1,16.6-30.6,27.5    c-3.6,4.7-6.9,9.6-9.8,14.8c-4.7,8.6-8.3,17.8-10.7,27.5c-2.3,9.4-3.5,19.2-3.3,29.2c0,0.8,0.6,1.4,1.4,1.4    C23.811,140.327,24.411,139.627,24.411,138.827L24.411,138.827z" style="fill:#142664;"/>
		<path d="M96.211,32.627c3.4-1.3,6.9-2.3,10.4-3.3c3.5-0.9,7-1.7,10.6-2.4c2.1-0.4,4.3-0.8,6.4-1.1    c5-0.8,10.1-1.3,15.2-1.4c0.8,0,1.4-0.6,1.4-1.4s-0.6-1.4-1.4-1.4c-5.3-0.1-10.6,0-15.7,0.6c-2.2,0.3-4.5,0.6-6.7,1    c-3.7,0.7-7.3,1.7-10.9,2.8c-3.6,1.1-7.1,2.5-10.5,4c-0.7,0.3-1.1,1.1-0.8,1.8C94.711,32.527,95.511,32.927,96.211,32.627    L96.211,32.627z" style="fill:#142664;"/>
		<path d="M12.111,85.827c4.9-11.2,11.4-21.7,19.1-31.2c7.7-9.4,16.7-17.9,26.6-25.1c7.9-5.7,16.3-10.7,25.3-14.7    c13.2-6,27.4-9.9,42.3-11.3c3.3-0.3,6.6-0.5,9.9-0.6s6.6,0,9.9,0.2c0.8,0.1,1.5-0.5,1.5-1.3s-0.5-1.5-1.3-1.5    c-3.4-0.2-6.8-0.4-10.1-0.3c-3.4,0-6.8,0.2-10.1,0.4c-15.2,1.3-29.9,5.1-43.5,11.1c-9.2,4.1-17.9,9.1-26,15    c-10.1,7.4-19.2,16.2-27,26s-14.2,20.7-19.1,32.2c-0.3,0.7,0,1.6,0.7,1.9C10.911,86.827,11.711,86.527,12.111,85.827    L12.111,85.827z" style="fill:#142664;"/>
		<path d="M52.611,105.827c2.1-6.7,5.3-13.3,9.3-19.5c3.9-6,8.5-11.6,13.8-16.7c3.1-3,6.4-5.8,9.9-8.3    c8.3-6,17.6-10.4,27.4-12.3c0.8-0.1,1.3-0.9,1.1-1.6c-0.1-0.8-0.9-1.3-1.6-1.1c-10.4,1.7-20.2,6-29,12.1    c-3.7,2.6-7.2,5.4-10.5,8.6c-5.5,5.3-10.2,11.2-14.1,17.6c-4,6.6-7.1,13.6-9.1,20.6c-0.2,0.8,0.2,1.5,1,1.8    C51.611,107.027,52.411,106.527,52.611,105.827L52.611,105.827z" style="fill:#142664;"/>
	</g>
</g>
</svg></g><!--ITEM: Illustration component 20--><g transform="translate(2111.25 2220.0) rotate(0.0 76.875 75.0)  scale(1.0479786791719774 1.0696254884623064)"><svg width="146.711" height="140.236" viewBox="0.0 0.0 146.711 140.236"><g>
	<path d="M2.711,120.527c0.3-1.6,0.7-3.2,1-4.8c0.3-1.6,0.7-3.2,1-4.7c0.2-1,0.4-1.9,0.5-2.9c0.4-2.2,0.8-4.5,1.3-6.7   c0.2-0.8-0.2-1.5-1-1.7s-1.5,0.2-1.7,1c-0.8,2.2-1.5,4.4-2.1,6.7c-0.3,1-0.5,1.9-0.7,2.9c-0.3,1.6-0.5,3.3-0.7,4.9   c-0.2,1.7-0.3,3.3-0.3,5c-0.1,0.8,0.5,1.5,1.2,1.6C1.911,121.927,2.611,121.327,2.711,120.527L2.711,120.527z" style="fill:#142664;"/>
	<g>
		<path d="M24.411,138.827c0.1-9.8,1.5-19.3,3.9-28.4c2.5-9.4,6.1-18.2,10.7-26.5c2.8-5,5.9-9.9,9.3-14.4    c8.1-10.7,17.9-20,29.2-27.3c0.7-0.4,0.9-1.3,0.4-2c-0.4-0.7-1.3-0.9-2-0.4c-11.7,7.3-22.1,16.6-30.6,27.5    c-3.6,4.7-6.9,9.6-9.8,14.8c-4.7,8.6-8.3,17.8-10.7,27.5c-2.3,9.4-3.5,19.2-3.3,29.2c0,0.8,0.6,1.4,1.4,1.4    C23.811,140.327,24.411,139.627,24.411,138.827L24.411,138.827z" style="fill:#142664;"/>
		<path d="M96.211,32.627c3.4-1.3,6.9-2.3,10.4-3.3c3.5-0.9,7-1.7,10.6-2.4c2.1-0.4,4.3-0.8,6.4-1.1    c5-0.8,10.1-1.3,15.2-1.4c0.8,0,1.4-0.6,1.4-1.4s-0.6-1.4-1.4-1.4c-5.3-0.1-10.6,0-15.7,0.6c-2.2,0.3-4.5,0.6-6.7,1    c-3.7,0.7-7.3,1.7-10.9,2.8c-3.6,1.1-7.1,2.5-10.5,4c-0.7,0.3-1.1,1.1-0.8,1.8C94.711,32.527,95.511,32.927,96.211,32.627    L96.211,32.627z" style="fill:#142664;"/>
		<path d="M12.111,85.827c4.9-11.2,11.4-21.7,19.1-31.2c7.7-9.4,16.7-17.9,26.6-25.1c7.9-5.7,16.3-10.7,25.3-14.7    c13.2-6,27.4-9.9,42.3-11.3c3.3-0.3,6.6-0.5,9.9-0.6s6.6,0,9.9,0.2c0.8,0.1,1.5-0.5,1.5-1.3s-0.5-1.5-1.3-1.5    c-3.4-0.2-6.8-0.4-10.1-0.3c-3.4,0-6.8,0.2-10.1,0.4c-15.2,1.3-29.9,5.1-43.5,11.1c-9.2,4.1-17.9,9.1-26,15    c-10.1,7.4-19.2,16.2-27,26s-14.2,20.7-19.1,32.2c-0.3,0.7,0,1.6,0.7,1.9C10.911,86.827,11.711,86.527,12.111,85.827    L12.111,85.827z" style="fill:#142664;"/>
		<path d="M52.611,105.827c2.1-6.7,5.3-13.3,9.3-19.5c3.9-6,8.5-11.6,13.8-16.7c3.1-3,6.4-5.8,9.9-8.3    c8.3-6,17.6-10.4,27.4-12.3c0.8-0.1,1.3-0.9,1.1-1.6c-0.1-0.8-0.9-1.3-1.6-1.1c-10.4,1.7-20.2,6-29,12.1    c-3.7,2.6-7.2,5.4-10.5,8.6c-5.5,5.3-10.2,11.2-14.1,17.6c-4,6.6-7.1,13.6-9.1,20.6c-0.2,0.8,0.2,1.5,1,1.8    C51.611,107.027,52.411,106.527,52.611,105.827L52.611,105.827z" style="fill:#142664;"/>
	</g>
</g>
</svg></g><!--ITEM: Illustration component 21--><g transform="translate(2111.25 2216.25) rotate(0.0 76.875 75.0)  scale(1.0479786791719774 1.0696254884623064)"><svg width="146.711" height="140.236" viewBox="0.0 0.0 146.711 140.236"><g>
	<path d="M2.711,120.527c0.3-1.6,0.7-3.2,1-4.8c0.3-1.6,0.7-3.2,1-4.7c0.2-1,0.4-1.9,0.5-2.9c0.4-2.2,0.8-4.5,1.3-6.7   c0.2-0.8-0.2-1.5-1-1.7s-1.5,0.2-1.7,1c-0.8,2.2-1.5,4.4-2.1,6.7c-0.3,1-0.5,1.9-0.7,2.9c-0.3,1.6-0.5,3.3-0.7,4.9   c-0.2,1.7-0.3,3.3-0.3,5c-0.1,0.8,0.5,1.5,1.2,1.6C1.911,121.927,2.611,121.327,2.711,120.527L2.711,120.527z" style="fill:#142664;"/>
	<g>
		<path d="M24.411,138.827c0.1-9.8,1.5-19.3,3.9-28.4c2.5-9.4,6.1-18.2,10.7-26.5c2.8-5,5.9-9.9,9.3-14.4    c8.1-10.7,17.9-20,29.2-27.3c0.7-0.4,0.9-1.3,0.4-2c-0.4-0.7-1.3-0.9-2-0.4c-11.7,7.3-22.1,16.6-30.6,27.5    c-3.6,4.7-6.9,9.6-9.8,14.8c-4.7,8.6-8.3,17.8-10.7,27.5c-2.3,9.4-3.5,19.2-3.3,29.2c0,0.8,0.6,1.4,1.4,1.4    C23.811,140.327,24.411,139.627,24.411,138.827L24.411,138.827z" style="fill:#142664;"/>
		<path d="M96.211,32.627c3.4-1.3,6.9-2.3,10.4-3.3c3.5-0.9,7-1.7,10.6-2.4c2.1-0.4,4.3-0.8,6.4-1.1    c5-0.8,10.1-1.3,15.2-1.4c0.8,0,1.4-0.6,1.4-1.4s-0.6-1.4-1.4-1.4c-5.3-0.1-10.6,0-15.7,0.6c-2.2,0.3-4.5,0.6-6.7,1    c-3.7,0.7-7.3,1.7-10.9,2.8c-3.6,1.1-7.1,2.5-10.5,4c-0.7,0.3-1.1,1.1-0.8,1.8C94.711,32.527,95.511,32.927,96.211,32.627    L96.211,32.627z" style="fill:#142664;"/>
		<path d="M12.111,85.827c4.9-11.2,11.4-21.7,19.1-31.2c7.7-9.4,16.7-17.9,26.6-25.1c7.9-5.7,16.3-10.7,25.3-14.7    c13.2-6,27.4-9.9,42.3-11.3c3.3-0.3,6.6-0.5,9.9-0.6s6.6,0,9.9,0.2c0.8,0.1,1.5-0.5,1.5-1.3s-0.5-1.5-1.3-1.5    c-3.4-0.2-6.8-0.4-10.1-0.3c-3.4,0-6.8,0.2-10.1,0.4c-15.2,1.3-29.9,5.1-43.5,11.1c-9.2,4.1-17.9,9.1-26,15    c-10.1,7.4-19.2,16.2-27,26s-14.2,20.7-19.1,32.2c-0.3,0.7,0,1.6,0.7,1.9C10.911,86.827,11.711,86.527,12.111,85.827    L12.111,85.827z" style="fill:#142664;"/>
		<path d="M52.611,105.827c2.1-6.7,5.3-13.3,9.3-19.5c3.9-6,8.5-11.6,13.8-16.7c3.1-3,6.4-5.8,9.9-8.3    c8.3-6,17.6-10.4,27.4-12.3c0.8-0.1,1.3-0.9,1.1-1.6c-0.1-0.8-0.9-1.3-1.6-1.1c-10.4,1.7-20.2,6-29,12.1    c-3.7,2.6-7.2,5.4-10.5,8.6c-5.5,5.3-10.2,11.2-14.1,17.6c-4,6.6-7.1,13.6-9.1,20.6c-0.2,0.8,0.2,1.5,1,1.8    C51.611,107.027,52.411,106.527,52.611,105.827L52.611,105.827z" style="fill:#142664;"/>
	</g>
</g>
</svg></g><!--ITEM: Illustration component 22--><g transform="translate(2107.5 2216.25) rotate(0.0 76.875 75.0)  scale(1.0479786791719774 1.0696254884623064)"><svg width="146.711" height="140.236" viewBox="0.0 0.0 146.711 140.236"><g>
	<path d="M2.711,120.527c0.3-1.6,0.7-3.2,1-4.8c0.3-1.6,0.7-3.2,1-4.7c0.2-1,0.4-1.9,0.5-2.9c0.4-2.2,0.8-4.5,1.3-6.7   c0.2-0.8-0.2-1.5-1-1.7s-1.5,0.2-1.7,1c-0.8,2.2-1.5,4.4-2.1,6.7c-0.3,1-0.5,1.9-0.7,2.9c-0.3,1.6-0.5,3.3-0.7,4.9   c-0.2,1.7-0.3,3.3-0.3,5c-0.1,0.8,0.5,1.5,1.2,1.6C1.911,121.927,2.611,121.327,2.711,120.527L2.711,120.527z" style="fill:#142664;"/>
	<g>
		<path d="M24.411,138.827c0.1-9.8,1.5-19.3,3.9-28.4c2.5-9.4,6.1-18.2,10.7-26.5c2.8-5,5.9-9.9,9.3-14.4    c8.1-10.7,17.9-20,29.2-27.3c0.7-0.4,0.9-1.3,0.4-2c-0.4-0.7-1.3-0.9-2-0.4c-11.7,7.3-22.1,16.6-30.6,27.5    c-3.6,4.7-6.9,9.6-9.8,14.8c-4.7,8.6-8.3,17.8-10.7,27.5c-2.3,9.4-3.5,19.2-3.3,29.2c0,0.8,0.6,1.4,1.4,1.4    C23.811,140.327,24.411,139.627,24.411,138.827L24.411,138.827z" style="fill:#142664;"/>
		<path d="M96.211,32.627c3.4-1.3,6.9-2.3,10.4-3.3c3.5-0.9,7-1.7,10.6-2.4c2.1-0.4,4.3-0.8,6.4-1.1    c5-0.8,10.1-1.3,15.2-1.4c0.8,0,1.4-0.6,1.4-1.4s-0.6-1.4-1.4-1.4c-5.3-0.1-10.6,0-15.7,0.6c-2.2,0.3-4.5,0.6-6.7,1    c-3.7,0.7-7.3,1.7-10.9,2.8c-3.6,1.1-7.1,2.5-10.5,4c-0.7,0.3-1.1,1.1-0.8,1.8C94.711,32.527,95.511,32.927,96.211,32.627    L96.211,32.627z" style="fill:#142664;"/>
		<path d="M12.111,85.827c4.9-11.2,11.4-21.7,19.1-31.2c7.7-9.4,16.7-17.9,26.6-25.1c7.9-5.7,16.3-10.7,25.3-14.7    c13.2-6,27.4-9.9,42.3-11.3c3.3-0.3,6.6-0.5,9.9-0.6s6.6,0,9.9,0.2c0.8,0.1,1.5-0.5,1.5-1.3s-0.5-1.5-1.3-1.5    c-3.4-0.2-6.8-0.4-10.1-0.3c-3.4,0-6.8,0.2-10.1,0.4c-15.2,1.3-29.9,5.1-43.5,11.1c-9.2,4.1-17.9,9.1-26,15    c-10.1,7.4-19.2,16.2-27,26s-14.2,20.7-19.1,32.2c-0.3,0.7,0,1.6,0.7,1.9C10.911,86.827,11.711,86.527,12.111,85.827    L12.111,85.827z" style="fill:#142664;"/>
		<path d="M52.611,105.827c2.1-6.7,5.3-13.3,9.3-19.5c3.9-6,8.5-11.6,13.8-16.7c3.1-3,6.4-5.8,9.9-8.3    c8.3-6,17.6-10.4,27.4-12.3c0.8-0.1,1.3-0.9,1.1-1.6c-0.1-0.8-0.9-1.3-1.6-1.1c-10.4,1.7-20.2,6-29,12.1    c-3.7,2.6-7.2,5.4-10.5,8.6c-5.5,5.3-10.2,11.2-14.1,17.6c-4,6.6-7.1,13.6-9.1,20.6c-0.2,0.8,0.2,1.5,1,1.8    C51.611,107.027,52.411,106.527,52.611,105.827L52.611,105.827z" style="fill:#142664;"/>
	</g>
</g>
</svg></g><!--ITEM: Illustration component 23--><g transform="translate(1455.0 2032.5) rotate(0.0 288.75 313.125) translate(0.0 0.0) scale(3.8819353884624177 3.9023554336989035)"><svg width="57.960779220779216" height="160.48" viewBox="0.0 0.0 57.960779220779216 160.48"><g>
	<g>
		<path d="M6.7,151.48V64.766l19.4-19.4h79.2c1.1,0,1.9-0.9,1.9-1.9s-0.9-1.9-1.9-1.9h-80c-0.5,0-1,0.2-1.4,0.6    l-20.6,20.6c-0.4,0.4-0.6,0.8-0.6,1.4v87.514c-1.6,0.7-2.7,2.3-2.7,4.2c0,2.5,2.1,4.6,4.6,4.6s4.6-2.1,4.6-4.6    C9.4,153.78,8.3,152.18,6.7,151.48L6.7,151.48z" style="fill:#ff2e93;"/>
	</g>
	<g>
		<circle cx="105.4" cy="43.366" r="43.366" style="fill:#ff2e93;"/>
	</g>
</g>
</svg></g><!--ITEM: Illustration component 24--><g transform="translate(1320.0 2028.75) rotate(0.0 -288.75 313.125) translate(-0.0 0.0) scale(-3.8819353884624177 3.9023554336989035)"><svg width="24.150324675324672" height="160.48" viewBox="0.0 0.0 24.150324675324672 160.48"><g>
	<g>
		<path d="M6.7,151.48V64.766l19.4-19.4h79.2c1.1,0,1.9-0.9,1.9-1.9s-0.9-1.9-1.9-1.9h-80c-0.5,0-1,0.2-1.4,0.6    l-20.6,20.6c-0.4,0.4-0.6,0.8-0.6,1.4v87.514c-1.6,0.7-2.7,2.3-2.7,4.2c0,2.5,2.1,4.6,4.6,4.6s4.6-2.1,4.6-4.6    C9.4,153.78,8.3,152.18,6.7,151.48L6.7,151.48z" style="fill:#ff2e93;"/>
	</g>
	<g>
		<circle cx="105.4" cy="43.366" r="43.366" style="fill:#ff2e93;"/>
	</g>
</g>
</svg></g><!--ITEM: Illustration component 25--><g transform="translate(2553.75 2332.5) rotate(-160.12582355539212 76.875 75.0)  scale(1.0479786791719774 1.0696254884623064)"><svg width="146.711" height="140.236" viewBox="0.0 0.0 146.711 140.236"><g>
	<path d="M2.711,120.527c0.3-1.6,0.7-3.2,1-4.8c0.3-1.6,0.7-3.2,1-4.7c0.2-1,0.4-1.9,0.5-2.9c0.4-2.2,0.8-4.5,1.3-6.7   c0.2-0.8-0.2-1.5-1-1.7s-1.5,0.2-1.7,1c-0.8,2.2-1.5,4.4-2.1,6.7c-0.3,1-0.5,1.9-0.7,2.9c-0.3,1.6-0.5,3.3-0.7,4.9   c-0.2,1.7-0.3,3.3-0.3,5c-0.1,0.8,0.5,1.5,1.2,1.6C1.911,121.927,2.611,121.327,2.711,120.527L2.711,120.527z" style="fill:#142664;"/>
	<g>
		<path d="M24.411,138.827c0.1-9.8,1.5-19.3,3.9-28.4c2.5-9.4,6.1-18.2,10.7-26.5c2.8-5,5.9-9.9,9.3-14.4    c8.1-10.7,17.9-20,29.2-27.3c0.7-0.4,0.9-1.3,0.4-2c-0.4-0.7-1.3-0.9-2-0.4c-11.7,7.3-22.1,16.6-30.6,27.5    c-3.6,4.7-6.9,9.6-9.8,14.8c-4.7,8.6-8.3,17.8-10.7,27.5c-2.3,9.4-3.5,19.2-3.3,29.2c0,0.8,0.6,1.4,1.4,1.4    C23.811,140.327,24.411,139.627,24.411,138.827L24.411,138.827z" style="fill:#142664;"/>
		<path d="M96.211,32.627c3.4-1.3,6.9-2.3,10.4-3.3c3.5-0.9,7-1.7,10.6-2.4c2.1-0.4,4.3-0.8,6.4-1.1    c5-0.8,10.1-1.3,15.2-1.4c0.8,0,1.4-0.6,1.4-1.4s-0.6-1.4-1.4-1.4c-5.3-0.1-10.6,0-15.7,0.6c-2.2,0.3-4.5,0.6-6.7,1    c-3.7,0.7-7.3,1.7-10.9,2.8c-3.6,1.1-7.1,2.5-10.5,4c-0.7,0.3-1.1,1.1-0.8,1.8C94.711,32.527,95.511,32.927,96.211,32.627    L96.211,32.627z" style="fill:#142664;"/>
		<path d="M12.111,85.827c4.9-11.2,11.4-21.7,19.1-31.2c7.7-9.4,16.7-17.9,26.6-25.1c7.9-5.7,16.3-10.7,25.3-14.7    c13.2-6,27.4-9.9,42.3-11.3c3.3-0.3,6.6-0.5,9.9-0.6s6.6,0,9.9,0.2c0.8,0.1,1.5-0.5,1.5-1.3s-0.5-1.5-1.3-1.5    c-3.4-0.2-6.8-0.4-10.1-0.3c-3.4,0-6.8,0.2-10.1,0.4c-15.2,1.3-29.9,5.1-43.5,11.1c-9.2,4.1-17.9,9.1-26,15    c-10.1,7.4-19.2,16.2-27,26s-14.2,20.7-19.1,32.2c-0.3,0.7,0,1.6,0.7,1.9C10.911,86.827,11.711,86.527,12.111,85.827    L12.111,85.827z" style="fill:#142664;"/>
		<path d="M52.611,105.827c2.1-6.7,5.3-13.3,9.3-19.5c3.9-6,8.5-11.6,13.8-16.7c3.1-3,6.4-5.8,9.9-8.3    c8.3-6,17.6-10.4,27.4-12.3c0.8-0.1,1.3-0.9,1.1-1.6c-0.1-0.8-0.9-1.3-1.6-1.1c-10.4,1.7-20.2,6-29,12.1    c-3.7,2.6-7.2,5.4-10.5,8.6c-5.5,5.3-10.2,11.2-14.1,17.6c-4,6.6-7.1,13.6-9.1,20.6c-0.2,0.8,0.2,1.5,1,1.8    C51.611,107.027,52.411,106.527,52.611,105.827L52.611,105.827z" style="fill:#142664;"/>
	</g>
</g>
</svg></g><!--ITEM: Illustration component 26--><g transform="translate(2553.75 2336.25) rotate(-160.12582355539212 76.875 75.0)  scale(1.0479786791719774 1.0696254884623064)"><svg width="146.711" height="140.236" viewBox="0.0 0.0 146.711 140.236"><g>
	<path d="M2.711,120.527c0.3-1.6,0.7-3.2,1-4.8c0.3-1.6,0.7-3.2,1-4.7c0.2-1,0.4-1.9,0.5-2.9c0.4-2.2,0.8-4.5,1.3-6.7   c0.2-0.8-0.2-1.5-1-1.7s-1.5,0.2-1.7,1c-0.8,2.2-1.5,4.4-2.1,6.7c-0.3,1-0.5,1.9-0.7,2.9c-0.3,1.6-0.5,3.3-0.7,4.9   c-0.2,1.7-0.3,3.3-0.3,5c-0.1,0.8,0.5,1.5,1.2,1.6C1.911,121.927,2.611,121.327,2.711,120.527L2.711,120.527z" style="fill:#142664;"/>
	<g>
		<path d="M24.411,138.827c0.1-9.8,1.5-19.3,3.9-28.4c2.5-9.4,6.1-18.2,10.7-26.5c2.8-5,5.9-9.9,9.3-14.4    c8.1-10.7,17.9-20,29.2-27.3c0.7-0.4,0.9-1.3,0.4-2c-0.4-0.7-1.3-0.9-2-0.4c-11.7,7.3-22.1,16.6-30.6,27.5    c-3.6,4.7-6.9,9.6-9.8,14.8c-4.7,8.6-8.3,17.8-10.7,27.5c-2.3,9.4-3.5,19.2-3.3,29.2c0,0.8,0.6,1.4,1.4,1.4    C23.811,140.327,24.411,139.627,24.411,138.827L24.411,138.827z" style="fill:#142664;"/>
		<path d="M96.211,32.627c3.4-1.3,6.9-2.3,10.4-3.3c3.5-0.9,7-1.7,10.6-2.4c2.1-0.4,4.3-0.8,6.4-1.1    c5-0.8,10.1-1.3,15.2-1.4c0.8,0,1.4-0.6,1.4-1.4s-0.6-1.4-1.4-1.4c-5.3-0.1-10.6,0-15.7,0.6c-2.2,0.3-4.5,0.6-6.7,1    c-3.7,0.7-7.3,1.7-10.9,2.8c-3.6,1.1-7.1,2.5-10.5,4c-0.7,0.3-1.1,1.1-0.8,1.8C94.711,32.527,95.511,32.927,96.211,32.627    L96.211,32.627z" style="fill:#142664;"/>
		<path d="M12.111,85.827c4.9-11.2,11.4-21.7,19.1-31.2c7.7-9.4,16.7-17.9,26.6-25.1c7.9-5.7,16.3-10.7,25.3-14.7    c13.2-6,27.4-9.9,42.3-11.3c3.3-0.3,6.6-0.5,9.9-0.6s6.6,0,9.9,0.2c0.8,0.1,1.5-0.5,1.5-1.3s-0.5-1.5-1.3-1.5    c-3.4-0.2-6.8-0.4-10.1-0.3c-3.4,0-6.8,0.2-10.1,0.4c-15.2,1.3-29.9,5.1-43.5,11.1c-9.2,4.1-17.9,9.1-26,15    c-10.1,7.4-19.2,16.2-27,26s-14.2,20.7-19.1,32.2c-0.3,0.7,0,1.6,0.7,1.9C10.911,86.827,11.711,86.527,12.111,85.827    L12.111,85.827z" style="fill:#142664;"/>
		<path d="M52.611,105.827c2.1-6.7,5.3-13.3,9.3-19.5c3.9-6,8.5-11.6,13.8-16.7c3.1-3,6.4-5.8,9.9-8.3    c8.3-6,17.6-10.4,27.4-12.3c0.8-0.1,1.3-0.9,1.1-1.6c-0.1-0.8-0.9-1.3-1.6-1.1c-10.4,1.7-20.2,6-29,12.1    c-3.7,2.6-7.2,5.4-10.5,8.6c-5.5,5.3-10.2,11.2-14.1,17.6c-4,6.6-7.1,13.6-9.1,20.6c-0.2,0.8,0.2,1.5,1,1.8    C51.611,107.027,52.411,106.527,52.611,105.827L52.611,105.827z" style="fill:#142664;"/>
	</g>
</g>
</svg></g><!--ITEM: Illustration component 27--><g transform="translate(2553.75 2332.5) rotate(-160.12582355539212 76.875 75.0)  scale(1.0479786791719774 1.0696254884623064)"><svg width="146.711" height="140.236" viewBox="0.0 0.0 146.711 140.236"><g>
	<path d="M2.711,120.527c0.3-1.6,0.7-3.2,1-4.8c0.3-1.6,0.7-3.2,1-4.7c0.2-1,0.4-1.9,0.5-2.9c0.4-2.2,0.8-4.5,1.3-6.7   c0.2-0.8-0.2-1.5-1-1.7s-1.5,0.2-1.7,1c-0.8,2.2-1.5,4.4-2.1,6.7c-0.3,1-0.5,1.9-0.7,2.9c-0.3,1.6-0.5,3.3-0.7,4.9   c-0.2,1.7-0.3,3.3-0.3,5c-0.1,0.8,0.5,1.5,1.2,1.6C1.911,121.927,2.611,121.327,2.711,120.527L2.711,120.527z" style="fill:#142664;"/>
	<g>
		<path d="M24.411,138.827c0.1-9.8,1.5-19.3,3.9-28.4c2.5-9.4,6.1-18.2,10.7-26.5c2.8-5,5.9-9.9,9.3-14.4    c8.1-10.7,17.9-20,29.2-27.3c0.7-0.4,0.9-1.3,0.4-2c-0.4-0.7-1.3-0.9-2-0.4c-11.7,7.3-22.1,16.6-30.6,27.5    c-3.6,4.7-6.9,9.6-9.8,14.8c-4.7,8.6-8.3,17.8-10.7,27.5c-2.3,9.4-3.5,19.2-3.3,29.2c0,0.8,0.6,1.4,1.4,1.4    C23.811,140.327,24.411,139.627,24.411,138.827L24.411,138.827z" style="fill:#142664;"/>
		<path d="M96.211,32.627c3.4-1.3,6.9-2.3,10.4-3.3c3.5-0.9,7-1.7,10.6-2.4c2.1-0.4,4.3-0.8,6.4-1.1    c5-0.8,10.1-1.3,15.2-1.4c0.8,0,1.4-0.6,1.4-1.4s-0.6-1.4-1.4-1.4c-5.3-0.1-10.6,0-15.7,0.6c-2.2,0.3-4.5,0.6-6.7,1    c-3.7,0.7-7.3,1.7-10.9,2.8c-3.6,1.1-7.1,2.5-10.5,4c-0.7,0.3-1.1,1.1-0.8,1.8C94.711,32.527,95.511,32.927,96.211,32.627    L96.211,32.627z" style="fill:#142664;"/>
		<path d="M12.111,85.827c4.9-11.2,11.4-21.7,19.1-31.2c7.7-9.4,16.7-17.9,26.6-25.1c7.9-5.7,16.3-10.7,25.3-14.7    c13.2-6,27.4-9.9,42.3-11.3c3.3-0.3,6.6-0.5,9.9-0.6s6.6,0,9.9,0.2c0.8,0.1,1.5-0.5,1.5-1.3s-0.5-1.5-1.3-1.5    c-3.4-0.2-6.8-0.4-10.1-0.3c-3.4,0-6.8,0.2-10.1,0.4c-15.2,1.3-29.9,5.1-43.5,11.1c-9.2,4.1-17.9,9.1-26,15    c-10.1,7.4-19.2,16.2-27,26s-14.2,20.7-19.1,32.2c-0.3,0.7,0,1.6,0.7,1.9C10.911,86.827,11.711,86.527,12.111,85.827    L12.111,85.827z" style="fill:#142664;"/>
		<path d="M52.611,105.827c2.1-6.7,5.3-13.3,9.3-19.5c3.9-6,8.5-11.6,13.8-16.7c3.1-3,6.4-5.8,9.9-8.3    c8.3-6,17.6-10.4,27.4-12.3c0.8-0.1,1.3-0.9,1.1-1.6c-0.1-0.8-0.9-1.3-1.6-1.1c-10.4,1.7-20.2,6-29,12.1    c-3.7,2.6-7.2,5.4-10.5,8.6c-5.5,5.3-10.2,11.2-14.1,17.6c-4,6.6-7.1,13.6-9.1,20.6c-0.2,0.8,0.2,1.5,1,1.8    C51.611,107.027,52.411,106.527,52.611,105.827L52.611,105.827z" style="fill:#142664;"/>
	</g>
</g>
</svg></g><!--ITEM: Illustration component 28--><g transform="translate(2557.5 2336.25) rotate(-160.12582355539212 76.875 75.0)  scale(1.0479786791719774 1.0696254884623064)"><svg width="146.711" height="140.236" viewBox="0.0 0.0 146.711 140.236"><g>
	<path d="M2.711,120.527c0.3-1.6,0.7-3.2,1-4.8c0.3-1.6,0.7-3.2,1-4.7c0.2-1,0.4-1.9,0.5-2.9c0.4-2.2,0.8-4.5,1.3-6.7   c0.2-0.8-0.2-1.5-1-1.7s-1.5,0.2-1.7,1c-0.8,2.2-1.5,4.4-2.1,6.7c-0.3,1-0.5,1.9-0.7,2.9c-0.3,1.6-0.5,3.3-0.7,4.9   c-0.2,1.7-0.3,3.3-0.3,5c-0.1,0.8,0.5,1.5,1.2,1.6C1.911,121.927,2.611,121.327,2.711,120.527L2.711,120.527z" style="fill:#142664;"/>
	<g>
		<path d="M24.411,138.827c0.1-9.8,1.5-19.3,3.9-28.4c2.5-9.4,6.1-18.2,10.7-26.5c2.8-5,5.9-9.9,9.3-14.4    c8.1-10.7,17.9-20,29.2-27.3c0.7-0.4,0.9-1.3,0.4-2c-0.4-0.7-1.3-0.9-2-0.4c-11.7,7.3-22.1,16.6-30.6,27.5    c-3.6,4.7-6.9,9.6-9.8,14.8c-4.7,8.6-8.3,17.8-10.7,27.5c-2.3,9.4-3.5,19.2-3.3,29.2c0,0.8,0.6,1.4,1.4,1.4    C23.811,140.327,24.411,139.627,24.411,138.827L24.411,138.827z" style="fill:#142664;"/>
		<path d="M96.211,32.627c3.4-1.3,6.9-2.3,10.4-3.3c3.5-0.9,7-1.7,10.6-2.4c2.1-0.4,4.3-0.8,6.4-1.1    c5-0.8,10.1-1.3,15.2-1.4c0.8,0,1.4-0.6,1.4-1.4s-0.6-1.4-1.4-1.4c-5.3-0.1-10.6,0-15.7,0.6c-2.2,0.3-4.5,0.6-6.7,1    c-3.7,0.7-7.3,1.7-10.9,2.8c-3.6,1.1-7.1,2.5-10.5,4c-0.7,0.3-1.1,1.1-0.8,1.8C94.711,32.527,95.511,32.927,96.211,32.627    L96.211,32.627z" style="fill:#142664;"/>
		<path d="M12.111,85.827c4.9-11.2,11.4-21.7,19.1-31.2c7.7-9.4,16.7-17.9,26.6-25.1c7.9-5.7,16.3-10.7,25.3-14.7    c13.2-6,27.4-9.9,42.3-11.3c3.3-0.3,6.6-0.5,9.9-0.6s6.6,0,9.9,0.2c0.8,0.1,1.5-0.5,1.5-1.3s-0.5-1.5-1.3-1.5    c-3.4-0.2-6.8-0.4-10.1-0.3c-3.4,0-6.8,0.2-10.1,0.4c-15.2,1.3-29.9,5.1-43.5,11.1c-9.2,4.1-17.9,9.1-26,15    c-10.1,7.4-19.2,16.2-27,26s-14.2,20.7-19.1,32.2c-0.3,0.7,0,1.6,0.7,1.9C10.911,86.827,11.711,86.527,12.111,85.827    L12.111,85.827z" style="fill:#142664;"/>
		<path d="M52.611,105.827c2.1-6.7,5.3-13.3,9.3-19.5c3.9-6,8.5-11.6,13.8-16.7c3.1-3,6.4-5.8,9.9-8.3    c8.3-6,17.6-10.4,27.4-12.3c0.8-0.1,1.3-0.9,1.1-1.6c-0.1-0.8-0.9-1.3-1.6-1.1c-10.4,1.7-20.2,6-29,12.1    c-3.7,2.6-7.2,5.4-10.5,8.6c-5.5,5.3-10.2,11.2-14.1,17.6c-4,6.6-7.1,13.6-9.1,20.6c-0.2,0.8,0.2,1.5,1,1.8    C51.611,107.027,52.411,106.527,52.611,105.827L52.611,105.827z" style="fill:#142664;"/>
	</g>
</g>
</svg></g><!--ITEM: Illustration component 29--><g transform="translate(1357.5 2220.0) rotate(0.0 26.25 221.25)  scale(3.75 3.719206233137497)"><svg width="14.0" height="118.977" viewBox="0.0 0.0 14.0 118.977"><g>
	<path d="M13.9,116.3c0.2,0.7,0,1.5-0.5,2.1c-0.5,0.5-1.3,0.7-2.1,0.5c-2.9-0.9-7-2.2-9.8-3c-0.7-0.2-1.2-0.8-1.4-1.5   c-0.2-0.7,0-1.4,0.5-2c2-2,4.8-4.8,6.8-6.8c0.5-0.5,1.3-0.7,2-0.5s1.3,0.7,1.5,1.4C11.8,109.2,13,113.3,13.9,116.3z" style="fill:#00E6B3;"/>
	<path d="M10.1,90.4c2.1,0,3.9,1.7,3.9,3.9l0,0c0,2.1-1.7,3.9-3.9,3.9c-1.9,0-4.3,0-6.2,0c-2.1,0-3.9-1.7-3.9-3.9l0,0   c0-2.1,1.7-3.9,3.9-3.9C5.9,90.4,8.2,90.4,10.1,90.4z M14,80.2c0,1-0.4,2-1.1,2.8c-0.7,0.7-1.7,1.1-2.8,1.1c-1.9,0-4.2,0-6.1,0   c-1,0-2-0.4-2.8-1.1c-0.7-0.7-1.1-1.7-1.1-2.8c0-3.6,0-8.9,0-12.5c0-1,0.4-2,1.1-2.8c0.7-0.7,1.7-1.1,2.8-1.1c1.9,0,4.2,0,6.1,0   c1,0,2,0.4,2.8,1.1c0.7,0.7,1.1,1.7,1.1,2.8C14,71.2,14,76.5,14,80.2z M14,53.4c0,2.2-1.8,3.9-3.9,3.9c-1.9,0-4.2,0-6.1,0   c-2.2,0-3.9-1.8-3.9-3.9c0-5.4,0-14.9,0-20.3c0-2.2,1.8-3.9,3.9-3.9c1.9,0,4.2,0,6.1,0c2.2,0,3.9,1.8,3.9,3.9   C14,38.5,14,48,14,53.4z M14,19.5c0,1.8-1.5,3.3-3.3,3.3c-2.2,0-5.1,0-7.3,0c-1.8,0-3.3-1.5-3.3-3.3l0,0c0-1.8,1.5-3.3,3.3-3.3   c2.2,0,5.1,0,7.3,0C12.5,16.2,14,17.7,14,19.5L14,19.5z M14,5.9c0,2.2-1.8,3.9-3.9,3.9c-1.9,0-4.2,0-6.1,0C1.8,9.8,0.1,8,0.1,5.9   c0-0.7,0-1.4,0-2C0.1,1.7,1.9,0,4,0c1.9,0,4.2,0,6.1,0C12.3,0,14,1.8,14,3.9C14,4.6,14,5.3,14,5.9z" style="fill:#FF2E93;"/>
</g>
</svg></g></svg>