<?xml version="1.0" standalone="no"?>
<!DOCTYPE svg PUBLIC "-//W3C//DTD SVG 20010904//EN"
 "http://www.w3.org/TR/2001/REC-SVG-20010904/DTD/svg10.dtd">
<svg version="1.0" xmlns="http://www.w3.org/2000/svg"
 width="325.000000pt" height="325.000000pt" viewBox="0 0 325.000000 325.000000"
 preserveAspectRatio="xMidYMid meet">
<metadata>
Created by potrace 1.14, written by Peter Selinger 2001-2017
</metadata>
<g transform="translate(0.000000,325.000000) scale(0.100000,-0.100000)"
fill="#000000" stroke="none">
<path d="M1560 3213 c-59 -10 -180 -47 -238 -74 -88 -39 -228 -133 -443 -296
-224 -169 -347 -247 -459 -289 l-85 -33 -3 -133 c-4 -150 12 -429 33 -587 80
-605 309 -1070 688 -1401 157 -138 528 -370 590 -370 45 0 291 142 442 256
352 263 589 620 719 1079 78 272 105 487 113 871 l6 292 -56 21 c-153 57 -297
143 -545 328 -86 63 -192 140 -236 170 -197 132 -381 191 -526 166z m80 -405
c0 -191 4 -339 10 -348 8 -13 11 -13 22 -1 10 11 10 14 1 18 -21 7 -15 41 9
57 27 19 78 21 79 4 1 -7 2 -20 3 -28 1 -10 10 -14 27 -12 20 2 28 -2 32 -17
6 -25 -20 -52 -33 -32 -5 9 -10 10 -14 2 -4 -6 -19 -11 -33 -11 -22 0 -25 4
-21 25 3 14 3 25 1 25 -3 0 -14 -11 -25 -25 -11 -14 -29 -25 -40 -25 -18 0
-20 -4 -14 -31 3 -17 6 -50 6 -73 0 -38 2 -42 28 -44 43 -3 202 -52 257 -78
28 -13 79 -46 115 -73 86 -65 293 -278 368 -379 65 -88 157 -269 191 -376 24
-73 37 -186 22 -186 -5 0 -12 -7 -15 -16 -3 -8 -2 -12 4 -9 44 27 -78 -240
-176 -385 -59 -88 -165 -220 -204 -255 l-23 -20 6 20 c11 35 -9 243 -26 268
-8 12 -17 36 -21 54 -6 25 -4 32 10 35 28 5 27 189 -2 327 -4 20 3 15 39 -25
24 -27 62 -59 84 -71 40 -23 41 -23 65 -4 13 11 32 38 42 60 10 22 26 42 35
44 9 3 -6 5 -33 6 l-48 1 6 31 c5 27 4 30 -9 19 -8 -7 -15 -17 -15 -22 0 -11
-25 -38 -35 -38 -3 0 -3 5 0 11 4 6 8 24 9 41 1 18 12 39 25 49 28 23 66 26
58 5 -4 -10 -1 -13 9 -9 13 5 12 10 -8 29 -29 28 -214 123 -290 148 -32 11
-58 25 -58 32 0 8 16 20 35 28 62 26 72 91 23 151 -31 36 -33 46 -38 130 l-5
90 -51 1 c-30 1 -62 9 -77 19 -15 9 -27 14 -27 10 0 -4 -8 -1 -17 6 -11 10
-14 10 -9 2 6 -12 -5 -18 -26 -14 -5 0 -8 -3 -8 -8 0 -15 32 -22 46 -10 12 9
13 9 9 -4 -4 -8 -15 -17 -26 -20 -10 -3 -19 -13 -19 -23 0 -10 -10 -28 -22
-41 -17 -19 -19 -23 -5 -17 9 3 17 10 17 15 0 5 7 9 16 9 11 0 13 6 9 19 -3
11 -2 22 3 25 5 3 8 -8 7 -25 -2 -25 1 -30 17 -26 10 3 16 1 12 -4 -3 -5 -17
-9 -32 -10 l-27 -1 25 -8 c14 -4 41 -9 60 -10 l35 -2 -30 -8 c-16 -4 -39 -8
-50 -9 -16 -1 -17 1 -5 9 8 5 10 10 4 10 -5 0 -15 -5 -22 -12 -15 -15 -42 -19
-42 -7 0 5 8 9 18 10 11 1 8 4 -8 8 -15 4 -24 14 -24 24 1 9 -2 14 -7 11 -5
-3 -9 0 -9 7 0 7 -3 9 -7 6 -3 -4 -11 0 -17 8 -7 9 -16 11 -24 6 -10 -6 -9
-19 8 -64 12 -31 25 -59 30 -62 6 -3 4 -22 -4 -43 -8 -20 -18 -53 -24 -72 -12
-43 -15 -10 -3 40 6 27 4 44 -11 70 -10 19 -18 42 -18 52 0 9 -5 20 -10 23 -6
4 -19 23 -29 43 -11 20 -28 46 -39 58 -14 14 -18 30 -15 55 3 25 2 30 -6 19
-5 -8 -7 -18 -5 -22 3 -4 0 -8 -6 -8 -6 0 -8 11 -4 28 10 47 14 53 24 47 11
-7 6 26 -11 72 -11 30 -23 34 -47 17 -16 -11 -20 -22 -17 -55 2 -23 6 -44 9
-47 3 -3 1 -11 -5 -18 -8 -10 -16 -11 -31 -3 -14 8 -17 14 -9 23 22 27 19 73
-6 103 -14 16 -22 21 -19 11 4 -13 1 -15 -12 -11 -9 3 -14 3 -10 -2 4 -4 0
-14 -10 -22 -9 -8 -11 -12 -5 -8 8 4 11 1 7 -8 -2 -7 -11 -14 -19 -15 -8 -1
-22 -3 -30 -4 -8 -1 -12 -5 -9 -10 3 -4 -4 -8 -15 -8 -15 0 -21 -7 -21 -22 -1
-23 -1 -23 -16 -3 -16 20 -16 20 -10 -2 4 -12 2 -24 -5 -29 -7 -4 -10 -3 -6 2
3 5 -1 20 -10 34 -8 14 -12 18 -9 9 2 -9 -1 -22 -7 -28 -6 -6 -7 -11 -1 -11 5
0 3 -4 -5 -9 -11 -7 -10 -12 5 -27 11 -11 19 -25 20 -31 3 -34 4 -36 18 -24 8
6 19 10 26 9 7 -2 15 3 17 10 3 6 -2 12 -11 12 -9 0 -16 4 -16 10 0 5 7 7 15
4 8 -4 15 -1 15 5 0 10 -21 16 -43 12 -5 -1 -6 3 -3 8 3 5 16 7 29 4 16 -3 18
-2 9 5 -11 7 -11 10 3 15 9 4 13 3 10 -2 -3 -5 -1 -12 5 -16 6 -4 8 -11 5 -16
-4 -5 2 -9 12 -9 15 0 16 -2 3 -10 -13 -8 -12 -10 4 -10 17 0 16 -3 -8 -25
-33 -30 -67 -50 -82 -47 -15 3 -24 -28 -30 -107 -5 -51 -3 -62 8 -56 7 4 0 -4
-17 -18 -20 -17 -30 -35 -31 -58 -4 -49 -7 -61 -27 -89 -9 -13 -17 -32 -17
-42 0 -10 -5 -18 -11 -18 -5 0 -8 -4 -5 -9 3 -5 -2 -15 -12 -22 -16 -13 -16
-13 -2 5 14 18 13 19 -19 13 -19 -4 -40 -15 -47 -25 -7 -9 -14 -12 -14 -7 0 6
-11 -9 -25 -31 -14 -23 -32 -44 -40 -48 -9 -3 -15 -18 -15 -36 0 -17 -4 -29
-9 -25 -18 11 -90 151 -127 246 -118 305 -181 609 -199 955 l-7 122 49 33 c26
18 119 86 206 151 202 151 289 209 379 255 85 43 207 82 261 82 l37 1 0 -332z
m-1020 -331 c0 -139 37 -410 79 -582 94 -383 215 -640 421 -900 207 -261 498
-456 805 -540 71 -19 142 -35 159 -35 l31 -1 -43 -38 c-61 -56 -202 -151 -327
-220 l-108 -60 -97 49 c-213 107 -451 290 -598 460 -370 429 -533 995 -523
1812 l1 56 68 26 c37 15 78 33 92 41 14 8 28 14 33 15 4 0 7 -37 7 -83z m1323
21 c20 3 22 -9 5 -27 -11 -11 -10 -12 2 -6 13 8 13 7 1 -8 -15 -19 -91 -24
-91 -6 0 14 17 46 38 70 17 19 17 19 23 -3 3 -15 12 -22 22 -20z m534 -2 c-12
-18 -13 -23 -2 -23 8 0 13 5 12 10 -1 6 13 11 30 13 33 2 39 -12 20 -42 -10
-16 -249 -16 -240 0 4 6 -1 5 -10 -3 -20 -16 -21 -11 -6 23 10 20 19 25 45 24
19 -1 34 -6 34 -11 0 -5 7 -4 15 3 9 7 25 10 40 6 20 -5 31 -1 48 18 26 29 36
16 14 -18z m233 24 c0 -5 -8 -10 -17 -10 -15 0 -16 2 -3 10 19 12 20 12 20 0z
m-635 -38 c-5 -13 -3 -13 11 -1 19 16 104 21 104 7 0 -6 6 -5 15 2 14 12 35 6
35 -10 0 -18 -33 -40 -61 -40 -29 0 -36 8 -21 26 4 5 0 2 -9 -8 -13 -13 -31
-17 -77 -16 -40 1 -59 5 -55 12 3 6 0 5 -8 -1 -23 -22 -29 -14 -11 17 14 24
23 29 50 28 25 -1 31 -5 27 -16z m597 4 c5 -7 8 -7 8 2 0 6 5 12 11 12 6 0 8
-7 5 -17 -6 -16 -6 -16 12 0 35 32 64 10 39 -30 -9 -15 -107 -15 -107 -1 0 6
-8 4 -17 -3 -15 -12 -16 -12 -10 6 7 19 6 19 -7 3 -21 -28 -28 -21 -12 10 11
21 22 28 43 28 15 0 31 -4 35 -10z m108 -40 c0 -3 -4 -8 -10 -11 -5 -3 -10 -1
-10 4 0 6 5 11 10 11 6 0 10 -2 10 -4z m-939 -27 c13 -7 18 -16 14 -29 -5 -15
1 -18 34 -22 34 -3 42 0 52 19 12 22 29 31 29 15 0 -4 -7 -19 -17 -32 -9 -14
-10 -19 -3 -12 21 18 50 15 47 -5 -1 -10 -6 -23 -10 -30 -9 -15 -99 -13 -109
2 -5 7 -8 6 -8 -1 0 -6 -14 -11 -31 -12 -28 -1 -31 2 -26 24 5 31 0 30 -25 -1
-22 -28 -68 -35 -68 -10 0 17 17 20 22 4 2 -7 9 -5 17 5 9 11 10 16 2 16 -21
0 -11 39 15 59 30 24 38 25 65 10z m356 -29 c-1 -11 -5 -20 -9 -20 -4 0 -13
-10 -19 -22 l-12 -23 25 23 c13 12 34 22 46 22 25 0 25 0 13 -34 -9 -23 -15
-25 -70 -23 -34 1 -61 5 -61 10 0 5 -6 5 -12 -1 -19 -14 -68 -12 -68 4 0 24
31 44 70 44 21 0 40 -5 42 -12 3 -7 13 2 23 20 22 36 34 41 32 12z m303 -17
c-17 -30 -18 -34 -4 -22 16 12 17 12 11 -4 -4 -11 -3 -16 4 -12 6 4 8 13 5 21
-3 9 1 14 13 14 18 0 23 -31 7 -47 -14 -14 -76 -12 -76 3 0 19 40 84 52 84 5
0 0 -17 -12 -37z m215 17 c-3 -5 -11 -10 -16 -10 -6 0 -7 5 -4 10 3 6 11 10
16 10 6 0 7 -4 4 -10z m-295 -36 c0 -8 -8 -14 -17 -14 -15 0 -16 -2 -3 -10 18
-12 17 -12 -37 -15 -34 -2 -43 1 -43 14 0 9 -8 2 -20 -16 -11 -18 -25 -33 -30
-33 -7 0 -8 5 -3 13 4 6 6 20 5 30 -6 34 16 45 83 45 48 -1 65 -4 65 -14z
m250 5 c0 -5 5 -7 12 -3 7 4 27 9 44 11 28 3 32 1 27 -17 -7 -28 -21 -34 -71
-36 -40 -1 -43 0 -38 20 5 19 3 19 -15 -4 -17 -21 -20 -22 -15 -5 6 20 6 20
-9 1 -21 -28 -31 -12 -11 19 11 17 25 25 46 25 17 0 30 -5 30 -11z m-1200
-312 c0 -5 -7 -7 -14 -4 -10 4 -13 1 -9 -9 3 -8 11 -13 18 -11 6 3 12 -1 12
-9 0 -18 -40 -31 -45 -15 -2 7 -10 17 -17 24 -10 9 -8 14 9 22 26 14 46 15 46
2z m55 -116 c-3 -5 6 -19 21 -30 21 -17 25 -25 19 -51 -4 -16 -14 -34 -22 -39
-14 -8 -14 -13 1 -56 20 -61 20 -62 -6 -71 -21 -6 -20 -7 8 -20 29 -12 29 -13
6 -20 -15 -4 -21 -12 -18 -21 3 -8 6 -19 6 -24 0 -5 9 -9 20 -9 26 0 26 -15
-1 -33 -16 -12 -28 -13 -57 -4 -53 15 -70 34 -88 94 -15 51 -15 56 2 74 11 12
21 16 27 10 6 -6 18 -5 34 2 19 8 23 17 21 41 -2 26 -8 32 -32 34 -20 3 -27 0
-24 -10 3 -7 -2 -18 -11 -25 -14 -10 -12 -11 9 -7 22 5 23 4 6 -6 -14 -10 -21
-9 -33 3 -21 21 -10 48 43 102 24 25 44 52 44 60 0 8 7 15 16 15 8 0 13 -4 9
-9z m436 -38 c13 -17 13 -17 -5 -3 -18 14 -19 13 -13 -2 4 -12 2 -15 -9 -11
-11 4 -12 9 -3 19 14 17 14 18 30 -3z m-611 -83 c-6 -12 -14 -19 -17 -17 -2 3
1 15 7 27 6 12 14 19 17 17 2 -3 -1 -15 -7 -27z m528 -46 c-4 -3 -10 -6 -15
-6 -4 0 -17 -4 -28 -10 -20 -9 -20 -9 -1 6 18 15 57 23 44 10z m66 -68 c18 -6
18 -7 1 -26 -10 -11 -26 -20 -36 -20 -25 0 -50 -11 -44 -19 2 -4 -2 -8 -10 -8
-8 0 -16 16 -20 39 -4 21 -12 38 -18 38 -7 1 -1 7 12 14 20 11 30 11 60 0 20
-7 44 -15 55 -18z m16 -87 c9 -17 8 -23 -7 -35 -17 -13 -16 -13 7 -14 l25 -1
-24 -10 c-17 -7 -27 -6 -32 3 -11 17 -42 -11 -36 -33 3 -12 -6 -22 -34 -35
-22 -9 -41 -15 -44 -12 -10 9 7 66 19 62 6 -2 17 0 25 5 12 8 13 14 3 36 -7
14 -12 27 -12 28 0 2 16 1 35 -1 25 -3 36 0 41 12 8 22 21 20 34 -5z m60 -9
c0 -5 -7 -10 -15 -10 -8 0 -15 5 -15 10 0 6 7 10 15 10 8 0 15 -4 15 -10z
m-474 -122 c7 -30 15 -43 27 -42 9 1 17 -2 17 -7 0 -5 9 -9 21 -9 13 0 18 -4
13 -12 -6 -10 -5 -10 7 -1 8 6 20 8 27 4 9 -5 5 -11 -12 -21 -27 -14 -25 -34
2 -26 10 3 24 1 32 -5 12 -9 12 -10 -3 -5 -10 3 -28 0 -40 -6 -12 -7 -25 -12
-29 -13 -3 0 -10 -4 -15 -9 -4 -5 -3 -6 4 -2 7 3 13 -1 15 -11 4 -20 -31 -43
-64 -43 -26 0 -88 -30 -88 -42 0 -5 5 -6 11 -2 12 7 12 6 -10 -38 -16 -32 -30
-36 -32 -10 -1 16 -2 16 -6 0 -2 -10 -9 -18 -14 -18 -5 0 -9 -7 -9 -15 0 -8
-4 -15 -8 -15 -5 0 -14 -12 -21 -27 -13 -29 -92 -132 -102 -133 -3 0 -16 14
-28 31 -23 30 -23 32 -6 73 9 22 25 59 36 80 10 22 17 41 15 43 -2 2 -28 -21
-59 -52 l-56 -55 -39 53 c-21 28 -49 70 -61 93 l-23 40 22 37 c25 42 61 68 68
48 2 -7 13 -4 29 9 14 11 33 20 42 19 11 0 10 -3 -5 -9 -23 -9 -39 -28 -31
-36 3 -3 17 6 32 20 16 15 33 22 42 19 10 -4 14 -2 10 4 -5 7 15 14 55 20 44
6 62 13 60 22 -2 9 5 12 22 9 22 -4 29 2 56 54 31 58 31 58 58 44 19 -10 30
-27 38 -58z m409 42 c-3 -5 1 -10 10 -10 21 0 14 -24 -8 -28 -12 -3 -17 4 -17
22 0 14 5 26 11 26 5 0 7 -4 4 -10z m-22 -97 c15 -3 27 -12 27 -20 0 -10 6
-12 21 -8 15 5 19 4 15 -4 -8 -13 13 -14 33 -2 8 5 23 3 39 -5 18 -9 28 -10
33 -3 8 14 19 -42 19 -95 -1 -39 -20 -82 -32 -70 -3 3 -17 -16 -29 -42 -14
-27 -35 -51 -49 -57 -14 -6 -35 -20 -47 -30 -13 -12 -30 -17 -43 -14 -13 3
-18 1 -13 -6 4 -6 0 -8 -9 -5 -8 4 -15 0 -15 -7 0 -10 9 -12 29 -8 l29 6 -7
-44 c-4 -24 -8 -46 -10 -48 -2 -2 1 -10 8 -18 8 -11 7 -12 -6 -7 -11 4 -16 1
-16 -10 0 -8 -15 -23 -32 -32 -18 -10 -50 -31 -70 -47 -47 -38 -59 -28 -31 24
16 29 18 39 8 39 -24 0 -27 20 -9 48 10 15 19 32 19 37 1 6 7 9 14 7 7 -1 10
2 6 8 -4 6 -1 17 5 25 6 8 9 19 5 25 -4 6 4 10 19 10 33 0 42 17 22 39 -9 10
-21 33 -26 51 -12 41 1 30 15 -13 6 -19 18 -33 30 -35 18 -3 18 -2 4 10 -9 7
-24 36 -33 65 -21 68 -20 79 4 23 25 -59 24 -41 -1 86 -22 108 -20 140 7 130
10 -4 13 -2 8 6 -5 8 -1 9 12 4 10 -4 31 -10 47 -13z m246 -41 c0 -15 -4 -47
-8 -72 l-8 -45 -2 40 c-1 22 -6 59 -10 82 -8 39 -7 41 10 32 12 -6 19 -20 18
-37z m65 9 c3 -5 26 -12 51 -15 25 -4 45 -13 45 -19 -1 -19 -57 -80 -64 -69
-3 5 5 22 19 38 29 33 27 38 -9 24 -35 -13 -71 -13 -41 0 15 7 16 9 4 9 -9 1
-19 10 -22 21 -5 20 7 28 17 11z m-454 -16 c-7 -9 -15 -13 -19 -10 -3 3 1 10
9 15 21 14 24 12 10 -5z m-240 -180 c0 -8 -7 -15 -15 -15 -9 0 -12 6 -9 15 4
8 10 15 15 15 5 0 9 -7 9 -15z m-67 -25 c-6 -24 -23 -37 -23 -18 0 12 18 38
26 38 1 0 0 -9 -3 -20z m0 -89 c38 -20 39 -36 2 -47 -26 -8 -32 -8 -28 3 3 7
0 13 -5 13 -6 0 -14 16 -18 35 -3 19 -10 33 -14 30 -8 -5 1 -56 18 -111 5 -17
21 -43 36 -58 14 -16 24 -32 21 -36 -3 -4 4 -10 15 -13 11 -3 20 -11 20 -17 0
-10 -3 -10 -15 0 -12 10 -15 9 -15 -7 0 -14 7 -19 28 -18 15 1 37 -2 50 -7 13
-5 22 -4 22 3 0 6 5 7 12 3 7 -4 8 -3 4 4 -5 8 1 12 17 12 14 0 28 -7 31 -16
9 -22 2 -27 -38 -28 -19 -1 -38 -5 -42 -9 -10 -10 -44 -9 -44 2 0 5 -14 14
-30 21 -37 16 -83 62 -90 92 -10 40 -28 32 -20 -10 8 -44 17 -62 32 -62 5 0
21 -9 35 -20 28 -22 28 -22 -45 -5 -26 6 -31 11 -26 27 5 16 2 18 -19 13 -33
-9 -38 2 -26 55 7 29 6 47 -1 54 -7 7 -10 -4 -10 -37 0 -54 -9 -59 -33 -18
-24 41 -22 48 26 96 23 24 55 62 71 85 l29 42 12 -28 c7 -16 24 -35 38 -43z
m207 -5 c0 -18 -17 8 -24 34 l-7 25 15 -25 c9 -14 15 -29 16 -34z m-152 -31
c-3 -3 -9 2 -12 12 -6 14 -5 15 5 6 7 -7 10 -15 7 -18z m68 -22 c-1 -33 -4
-38 -24 -37 -17 0 -22 -4 -20 -20 2 -13 -2 -20 -9 -18 -7 1 -13 -5 -13 -13 0
-17 12 -19 26 -5 7 7 18 3 33 -11 21 -20 22 -23 7 -31 -9 -5 -14 -13 -11 -19
10 -15 -4 -10 -37 14 -46 33 -100 117 -86 134 13 16 40 17 57 1 10 -11 15 -9
27 7 14 19 14 19 12 -5 -2 -17 3 -25 15 -28 16 -3 17 1 11 32 -3 21 -2 36 3
36 6 0 10 -17 9 -37z m140 -65 c8 -54 -4 -44 -27 23 -21 58 -14 104 8 52 7
-18 16 -51 19 -75z m344 66 c0 -3 -7 -1 -15 6 -8 7 -15 17 -15 22 0 5 7 3 15
-6 8 -8 15 -18 15 -22z m-45 -14 c3 -5 1 -10 -4 -10 -6 0 -11 5 -11 10 0 6 2
10 4 10 3 0 8 -4 11 -10z m-223 -211 c-6 -24 -53 -68 -68 -62 -8 3 -18 -5 -25
-20 -6 -14 -18 -24 -28 -22 -22 3 -36 -6 -22 -15 9 -5 7 -10 -4 -20 -13 -11
-14 -10 -9 4 5 12 2 15 -10 10 -20 -7 -47 13 -40 30 2 6 27 21 55 31 28 11 55
28 60 37 13 23 -9 15 -80 -30 -29 -19 -51 -30 -47 -24 3 5 -1 12 -9 15 -10 4
-12 1 -8 -10 4 -11 2 -14 -8 -9 -8 3 -22 9 -31 12 -19 7 -34 42 -23 52 4 4 10
1 12 -5 3 -7 10 -13 16 -13 7 0 24 -6 39 -14 25 -13 28 -13 43 10 8 13 21 24
28 24 6 1 28 8 48 18 46 21 115 22 111 1z m-317 -29 c3 -5 2 -10 -4 -10 -5 0
-13 5 -16 10 -3 6 -2 10 4 10 5 0 13 -4 16 -10z m450 -170 c8 -25 -10 -50 -37
-50 -16 0 -17 3 -7 23 7 12 12 23 11 25 -1 1 -2 7 -2 12 0 19 29 10 35 -10z"/>
<path d="M1685 2520 c-15 -16 -15 -20 -3 -20 8 0 23 9 33 20 15 16 15 20 3 20
-8 0 -23 -9 -33 -20z"/>
<path d="M1730 2515 c-8 -9 -8 -15 -2 -15 12 0 26 19 19 26 -2 2 -10 -2 -17
-11z"/>
<path d="M1740 2469 c0 -5 5 -7 10 -4 6 3 10 8 10 11 0 2 -4 4 -10 4 -5 0 -10
-5 -10 -11z"/>
<path d="M1473 2205 c0 -8 4 -15 9 -15 4 0 8 4 8 9 0 6 -4 12 -8 15 -5 3 -9
-1 -9 -9z"/>
<path d="M1436 2088 c3 -5 10 -6 15 -3 13 9 11 12 -6 12 -8 0 -12 -4 -9 -9z"/>
<path d="M1885 2000 c-3 -6 1 -7 9 -4 18 7 21 14 7 14 -6 0 -13 -4 -16 -10z"/>
<path d="M1377 1899 c7 -7 15 -10 18 -7 3 3 -2 9 -12 12 -14 6 -15 5 -6 -5z"/>
<path d="M1217 1503 c-4 -3 -7 -11 -7 -17 0 -6 5 -5 12 2 6 6 9 14 7 17 -3 3
-9 2 -12 -2z"/>
<path d="M2555 1271 c-22 -4 -46 -10 -52 -14 -16 -10 -17 -49 -1 -65 23 -23
78 -8 78 21 0 5 -7 4 -14 -3 -8 -6 -25 -10 -38 -8 -23 4 -23 4 5 18 21 10 33
11 52 2 23 -11 24 -10 15 12 -5 15 -5 27 3 35 6 6 7 10 2 10 -6 -1 -28 -4 -50
-8z"/>
<path d="M973 674 l-28 -25 33 22 c17 13 32 24 32 26 0 8 -11 1 -37 -23z"/>
<path d="M1010 660 c-9 -6 -10 -10 -3 -10 6 0 15 5 18 10 8 12 4 12 -15 0z"/>
<path d="M986 632 c-4 -7 -5 -12 -2 -12 2 0 11 -3 20 -6 9 -3 16 -1 16 6 0 6
-4 9 -9 6 -5 -4 -11 -1 -13 6 -3 9 -6 9 -12 0z"/>
<path d="M1050 585 c-11 -13 -10 -14 4 -9 9 3 16 10 16 15 0 13 -6 11 -20 -6z"/>
<path d="M1083 573 c4 -3 1 -13 -6 -22 -11 -14 -10 -14 5 -2 16 12 16 31 1 31
-4 0 -3 -3 0 -7z"/>
<path d="M1115 519 c-4 -6 -5 -12 -2 -15 2 -3 7 2 10 11 7 17 1 20 -8 4z"/>
<path d="M1230 431 c5 -11 15 -23 21 -27 6 -3 3 5 -6 20 -20 30 -30 35 -15 7z"/>
<path d="M1296 383 c-6 -14 -5 -15 5 -6 7 7 10 15 7 18 -3 3 -9 -2 -12 -12z"/>
<path d="M1260 380 c0 -5 5 -10 11 -10 5 0 7 5 4 10 -3 6 -8 10 -11 10 -2 0
-4 -4 -4 -10z"/>
<path d="M1336 353 c-6 -14 -5 -15 5 -6 7 7 10 15 7 18 -3 3 -9 -2 -12 -12z"/>
<path d="M1433 303 c-9 -16 -22 -34 -27 -42 -8 -11 -8 -13 0 -8 13 7 56 77 49
77 -3 0 -12 -12 -22 -27z"/>
<path d="M1526 253 c-6 -14 -5 -15 5 -6 7 7 10 15 7 18 -3 3 -9 -2 -12 -12z"/>
<path d="M1590 201 c0 -6 4 -13 10 -16 6 -3 7 1 4 9 -7 18 -14 21 -14 7z"/>
<path d="M1896 2483 c-6 -14 -5 -15 5 -6 7 7 10 15 7 18 -3 3 -9 -2 -12 -12z"/>
<path d="M2407 2476 c-4 -9 -3 -15 2 -11 5 3 11 -1 13 -7 3 -8 10 -3 18 12 12
22 12 24 -2 12 -13 -10 -17 -10 -20 0 -3 8 -7 6 -11 -6z"/>
<path d="M2520 2459 c0 -5 5 -7 10 -4 6 3 10 8 10 11 0 2 -4 4 -10 4 -5 0 -10
-5 -10 -11z"/>
<path d="M2100 2475 c-7 -9 -10 -18 -7 -21 3 -3 10 4 17 15 13 25 8 27 -10 6z"/>
<path d="M2205 2469 c-4 -6 -5 -12 -2 -15 2 -3 7 2 10 11 7 17 1 20 -8 4z"/>
<path d="M2711 2467 c-13 -21 -12 -21 5 -5 10 10 16 20 13 22 -3 3 -11 -5 -18
-17z"/>
<path d="M1793 2409 c-21 -8 -33 -39 -15 -39 9 0 45 40 40 45 -2 1 -13 -1 -25
-6z"/>
<path d="M1819 2383 c-13 -16 -12 -17 4 -4 9 7 17 15 17 17 0 8 -8 3 -21 -13z"/>
<path d="M1836 2343 c-6 -14 -5 -15 5 -6 7 7 10 15 7 18 -3 3 -9 -2 -12 -12z"/>
<path d="M1959 2343 c-13 -16 -12 -17 4 -4 9 7 17 15 17 17 0 8 -8 3 -21 -13z"/>
<path d="M2056 2343 c-6 -14 -5 -15 5 -6 7 7 10 15 7 18 -3 3 -9 -2 -12 -12z"/>
<path d="M2289 2343 c-13 -16 -12 -17 4 -4 9 7 17 15 17 17 0 8 -8 3 -21 -13z"/>
<path d="M2345 2349 c-4 -6 -5 -12 -2 -15 2 -3 7 2 10 11 7 17 1 20 -8 4z"/>
<path d="M2715 2349 c-4 -6 -5 -12 -2 -15 2 -3 7 2 10 11 7 17 1 20 -8 4z"/>
<path d="M1480 1635 c-16 -20 8 -31 27 -13 13 14 13 16 0 21 -9 3 -21 0 -27
-8z"/>
<path d="M1540 1381 c0 -9 5 -22 12 -29 9 -9 8 -12 -6 -12 -9 0 -14 -4 -11
-10 3 -5 2 -10 -4 -10 -5 0 -13 5 -17 11 -4 7 -15 1 -30 -17 -28 -34 -29 -41
-9 -41 8 0 15 7 16 16 0 9 3 11 5 5 8 -19 40 -5 73 32 17 18 31 36 31 38 0 2
-13 11 -30 20 -28 13 -30 13 -30 -3z"/>
<path d="M1505 1360 c3 -5 10 -10 16 -10 5 0 9 5 9 10 0 6 -7 10 -16 10 -8 0
-12 -4 -9 -10z"/>
<path d="M1270 1325 c0 -8 4 -15 10 -15 5 0 7 7 4 15 -4 8 -8 15 -10 15 -2 0
-4 -7 -4 -15z"/>
<path d="M1419 1282 c-60 -68 -64 -78 -9 -25 30 29 52 55 49 58 -3 3 -21 -12
-40 -33z"/>
<path d="M1365 1279 c-10 -15 3 -25 16 -12 7 7 7 13 1 17 -6 3 -14 1 -17 -5z"/>
<path d="M1336 1247 c3 -10 9 -15 12 -12 3 3 0 11 -7 18 -10 9 -11 8 -5 -6z"/>
<path d="M1440 1249 c0 -5 5 -7 10 -4 6 3 10 8 10 11 0 2 -4 4 -10 4 -5 0 -10
-5 -10 -11z"/>
<path d="M1216 1213 c-6 -14 -5 -15 5 -6 7 7 10 15 7 18 -3 3 -9 -2 -12 -12z"/>
<path d="M1306 1194 c-5 -14 -4 -15 9 -4 17 14 19 20 6 20 -5 0 -12 -7 -15
-16z"/>
<path d="M1908 1345 c-9 -15 17 -172 31 -189 8 -9 23 -16 35 -15 21 0 21 0 -1
9 -12 5 -25 19 -27 32 -3 13 -11 57 -18 98 -8 41 -16 71 -20 65z"/>
<path d="M1465 890 c3 -5 8 -10 11 -10 2 0 4 5 4 10 0 6 -5 10 -11 10 -5 0 -7
-4 -4 -10z"/>
<path d="M1526 985 c4 -8 7 -15 9 -15 1 0 8 7 15 15 10 13 9 15 -8 15 -15 0
-20 -5 -16 -15z"/>
<path d="M1637 703 c-12 -12 -7 -22 8 -17 8 4 15 10 15 15 0 11 -14 12 -23 2z"/>
</g>
</svg>
